<?xml version="1.0" standalone="no"?>
<!DOCTYPE svg PUBLIC "-//W3C//DTD SVG 1.1//EN" "http://www.w3.org/Graphics/SVG/1.1/DTD/svg11.dtd" >
<!--
2012-4-10: Created.
-->
<svg>
<metadata>
Created by FontForge 20110222 at Wed Jun 20 19:28:42 2012
 By David Grajal Blanco,,,
Created by David Grajal Blanco - SocialAdventures
</metadata>
<defs>
<font id="Untitled1" horiz-adv-x="1000" >
  <font-face 
    font-family="Untitled1"
    font-weight="500"
    font-stretch="normal"
    units-per-em="1000"
    panose-1="2 0 6 3 0 0 0 0 0 0"
    ascent="800"
    descent="-200"
    x-height="714.5"
    cap-height="497"
    bbox="-0.615383 -200.853 1011 862"
    underline-thickness="50"
    underline-position="-100"
    unicode-range="U+0024-00E8"
  />
    <missing-glyph />
    <glyph glyph-name="a" unicode="a" 
d="M31.4004 137.494c60.1348 -55.6112 214.551 -108.24 340.203 14.928c-22.597 -3.524 -41.464 0.753998 -55.787 14.929c-13.596 13.46 -14.339 27.391 -7.06802 40.07c5.914 10.315 18.384 17.575 30.641 25.141c-22.237 -4.134 -41.2 -1.987 -58.142 6.67801
c-22.747 11.63 -44.871 23.87 -51.07 49.104c13.911 14.641 29.381 27.717 62.858 22.785c-31.491 10.517 -59.708 24.233 -80.143 44.786c-19.898 20.011 -21.95 33.022 -25.141 48.713c17.377 6.43802 35.528 9.785 54.998 7.85602
c-44.028 22.512 -62.721 53.472 -73.067 87.209c-3.117 10.203 -3.692 19.905 -2.36401 29.857c178.345 -67.324 261.868 -115.692 307.99 -161.067c20.743 55.201 69.111 180.225 141.424 223.137c0.343018 -6.80798 -2.362 -14.144 -7.85901 -22.001
c21.404 11.929 38.121 31.022 67.57 30.646c-3.39001 -13.933 -13.137 -25.09 -32.213 -32.217c19.241 7.37006 38.731 13.616 58.926 17.284c18.724 3.39105 18.453 -11.377 7.85699 -18.853c-21.504 -15.178 -44.358 -17.059 -66.783 -24.357
c68.762 -1.71204 125 -34.274 168.923 -105.284c14.596 -23.597 24.395 -47.192 26.713 -73.067c29.3329 -8.23001 58.519 -9.91501 87.995 -4.71201c8.07697 1.43802 15.601 2.94501 22.785 6.284c-11.458 -17.196 -24.692 -31.32 -43.209 -37.713
c-17.703 -6.11301 -35.437 -12.069 -54.999 -12.572c31.836 -12.052 66.927 -12.717 102.924 -10.213c-44.039 -42.385 -77.742 -41.365 -111.568 -40.858c-14.832 -62.632 -45.158 -125.089 -109.208 -182.276c-84.026 -75.0224 -174.472 -110.805 -267.919 -118.641
c-87.612 -7.3457 -172.317 -6.3389 -264.775 36.9297c-68.554 32.0762 -126.014 76.2246 -170.495 137.494h0.00390053z" />
    <glyph glyph-name="b" unicode="b" 
d="M439.202 0c145.46 14.3789 255.701 103.445 246.277 198.974c-9.44 95.461 -134.998 161.21 -280.458 146.815c-145.425 -14.379 -255.716 -103.429 -246.276 -198.906c9.457 -95.4953 135.015 -161.228 280.457 -146.883zM715.743 339.479
c-6.47797 -16.254 2.00903 -18.782 14.378 -22.481c50.4 -15.633 106.492 -53.43 106.492 -120.016c0 -110.224 -158.951 -249.055 -397.896 -249.055c-182.285 0 -368.604 88.33 -368.604 233.622c0 75.961 48.1237 163.805 130.997 246.695
c110.677 110.627 239.733 161.027 288.258 112.468c21.409 -21.392 23.485 -58.435 9.72498 -102.676c-7.181 -22.278 20.907 -9.93402 20.907 -9.992c89.452 37.46 167.487 39.653 196.011 -1.08902c15.216 -21.727 13.759 -52.175 -0.268005 -87.476zM667.408 654.539
c78.571 16.706 163.688 -7.68298 221.387 -71.655c57.731 -63.905 73.282 -151.031 48.659 -227.477l-0.0119629 -0.13501c-5.724 -17.642 -24.689 -27.317 -42.348 -21.609c-17.727 5.72501 -27.402 24.656 -21.677 42.366l-0.0119629 0.0119934
c17.559 54.334 6.42798 116.317 -34.549 161.763c-41.044 45.428 -101.52 62.803 -157.411 50.935c-18.178 -3.883 -36.054 7.73401 -39.922 25.878c-3.90002 18.146 7.70099 36.039 25.862 39.922h0.0230103zM692.349 537.766
c38.281 8.13403 79.743 -3.70099 107.826 -34.846c28.149 -31.146 35.665 -73.578 23.63 -110.822c-4.90497 -15.232 -21.225 -23.535 -36.457 -18.663c-15.216 4.93701 -23.535 21.274 -18.63 36.473h-0.0240479c5.90906 18.212 2.20905 38.968 -11.533 54.217
c-13.742 15.198 -34.03 20.974 -52.744 17.007v0.0220032c-15.601 -3.397 -30.983 6.629 -34.331 22.213c-3.36401 15.667 6.612 31.067 22.263 34.399zM422.087 163.689c8.80499 -3.631 20.053 0.553009 25.142 9.257c4.854 8.754 1.707 18.597 -7.08099 21.811
c-8.63702 3.431 -19.451 -0.720001 -24.522 -9.22301c-4.92102 -8.554 -2.21002 -18.279 6.461 -21.845zM333.991 91.5459c22.697 -10.3613 52.827 -0.536095 66.888 21.9111c13.826 22.681 6.54501 48.576 -16.236 58.284
c-22.531 9.44101 -51.639 -0.266998 -65.533 -22.061c-14.077 -21.878 -7.48199 -47.957 14.881 -58.1341zM276.226 194.841c30.062 60.979 108.299 95.477 177.514 77.467c71.625 -18.514 108.182 -86.088 78.906 -151.72
c-29.694 -67.1398 -115.062 -102.927 -187.507 -79.5763c-69.918 22.5801 -99.529 91.6283 -68.913 153.829z" />
    <glyph glyph-name="c" unicode="c" 
d="M218.39 41.2354c-15.386 6.6875 -27.974 16.8154 -27.974 22.5078c0 5.6914 14.8 23.0166 32.89 38.5008c18.089 15.484 42.29 45.872 53.78 67.531c11.489 21.659 25.37 39.379 30.846 39.379c5.47501 0 19.689 -16.461 31.585 -36.58
c11.896 -20.12 37.44 -51.891 56.764 -70.604c19.324 -18.7132 35.136 -37.3089 35.136 -41.3235c0 -28.8887 -158.081 -43.293 -213.027 -19.4111zM605.712 41.2354c-15.386 6.6875 -27.974 16.5644 -27.974 21.9492c0 5.3847 16.549 25.9062 36.775 45.6034
c20.226 19.696 43.647 50.337 52.047 68.089c19.376 40.948 35.553 40.868 56.545 -0.279999c9.13605 -17.907 32.451 -47.924 51.811 -66.706c44.504 -43.1732 45.215 -60.6869 2.93896 -72.4271c-45.594 -12.6621 -139.043 -10.6143 -172.143 3.7715zM102.48 129.538
c-21.3052 24.426 -29.6782 46.216 -40.5142 105.438c-11.1084 60.712 -0.482403 131.44 28.0332 186.583c28.706 55.512 137.781 125.292 174.078 111.363c12.308 -4.72302 13.621 -20.13 10.542 -123.697c-2.884 -96.999 -6.79898 -125.54 -21.74 -158.496
c-21.202 -46.764 -72.312 -106.181 -106.576 -123.9c-29.637 -15.326 -28.002 -15.427 -43.823 2.70899zM841.977 138.146c-40.078 30.139 -79.822 84.414 -97 132.461c-14.703 41.124 -26.755 206.756 -17.676 242.928c3.59698 14.336 11.586 22.692 21.694 22.692
c53.493 0 149.374 -76.028 182.475 -144.69c37.46 -77.708 22.244 -209.715 -30.222 -262.181c-19.472 -19.472 -22.24 -19.061 -59.271 8.78999zM426.567 169.084c-65.595 67.725 -81.222 116.117 -81.222 251.539c0 86.297 2.48001 108.488 12.555 112.355
c18.577 7.12799 67.271 -11.312 108.24 -40.99l36.083 -26.138l35.605 24.819c65.228 45.464 110.93 57.554 120.758 31.943c9.867 -25.714 5.01398 -180.071 -7.09198 -225.548c-24.361 -91.514 -97.775 -173.981 -154.883 -173.981
c-19.508 0 -35.94 10.791 -70.044 46.001z" />
    <glyph glyph-name="d" unicode="d" 
d="M381.177 729.723h237.646c23.765 0 47.53 -23.764 47.53 -47.5291v-47.529h-332.706v47.529c0 23.765 23.765 47.5291 47.53 47.5291zM333.647 587.135h332.706v-23.764c0 -91.874 -74.48 -166.352 -166.353 -166.352s-166.353 74.478 -166.353 166.352v23.764z
M286.118 349.488h356.47l-323.793 -475.292h-127.735v285.175c0 71.295 23.764 190.117 95.058 190.117zM713.882 349.488c71.294 0 95.058 -118.822 95.058 -190.117v-285.174h-418.851z" />
    <glyph glyph-name="e" unicode="e" 
d="M566.157 607.702c55.022 0 77.341 -45.3441 85.676 -70.3391l67.596 -222.21c13.482 -47.798 -47.314 -67.587 -61.811 -21.006l-60.826 204.025h-17.703l105.427 -362.928h-97.131v-282.939c0 -48.252 -72.57 -48.01 -72.57 0v284.794h-29.583l0.0490112 -284.399
c0 -48.647 -72.869 -48.647 -72.869 0l-0.0189819 282.544h-97.44l104.606 362.927h-16.361l-60.836 -204.749c-14.487 -44.629 -75.815 -26.309 -61.772 21.518l67.538 222.423c7.23401 25.353 29.409 70.3391 84.942 70.3391h133.087zM421.152 703.152
c0 52.565 26.283 78.848 78.848 78.848s78.848 -26.283 78.848 -78.848s-26.283 -78.847 -78.848 -78.847s-78.848 26.282 -78.848 78.847z" />
    <glyph glyph-name="f" unicode="f" 
d="M422.218 696.218c0 51.855 25.927 77.782 77.782 77.782c51.855 -0.000976562 77.782 -25.928 77.782 -77.782c0 -51.856 -25.928 -77.783 -77.782 -77.782c-51.855 0 -77.782 25.927 -77.782 77.782zM408.041 -135.728l0.0860291 630.697h-19.524v-232.423
c0 -14.613 -5.11099 -24.928 -15.332 -30.945s-20.443 -6.017 -30.664 0s-15.332 16.332 -15.332 30.945v238.81c0 28.74 8.20001 52.746 24.598 72.019c16.398 19.273 38.058 28.91 64.978 28.91l174.344 -0.0759888c28.591 0 50.87 -10.076 66.836 -30.229
c15.967 -20.152 23.95 -44.167 23.95 -72.044v-237.38c0.0349731 -14.72 -5.01703 -25.111 -15.154 -31.174c-10.145 -6.063 -20.299 -6.063 -30.462 0c-10.163 6.063 -15.244 16.454 -15.244 31.174v232.423h-19.124l-0.190002 -630.707
c-0.00701904 -12.034 -4.26398 -22.31 -12.77 -30.828c-8.513 -8.517 -18.788 -12.777 -30.826 -12.777c-12.041 -0.00100708 -22.318 4.25899 -30.832 12.778c-8.51605 8.51799 -12.774 18.794 -12.774 30.827l0.124023 365.832h-19.419l-0.0390015 -365.832
c-0.00100708 -12.035 -4.259 -22.312 -12.774 -30.829c-8.517 -8.517 -18.801 -12.776 -30.851 -12.776c-12.03 0 -22.306 4.25999 -30.825 12.779c-8.52002 8.52 -12.78 18.795 -12.78 30.826z" />
    <glyph glyph-name="g" unicode="g" horiz-adv-x="500" 
d="M245.039 782h7.961v-104.885h2.978v-5.651h-2.978v-62.834h2.61301v-2.97803h-2.61301v-84.041h2.30901v-5.651h-2.30901v-20.844h5.591v-5.651h-4.49701l6.077 -15.192h8.38602v-3.646h-5.65201v-9.29703h2.978v-3.586h-2.978v-4.435h2.978v-3.58499h-2.978v-4.43701
h2.978v-3.646h-2.978v-4.375h2.978v-3.646h-2.978v-4.37601h2.978v-3.64499h-2.978v-4.07199c18.796 -6.099 32.449 -24.562 32.449 -46.366c0 -22.591 -14.66 -41.593 -34.515 -46.973l0.0599976 -4.13199h4.98401v-6.32001h-4.862l0.0610046 -2.00598h4.80099v-6.25803
h-4.67999l8.38599 -445.73h0.0610046l6.19901 -18.838h77.903l35.185 6.685l-0.972015 -0.548004l0.972015 0.182999l-21.876 -12.518v-9.845l26.737 -17.076h-0.608002l0.608002 -0.363998l-9.11499 0.182999l-17.258 7.899v-5.895v-0.363998h-115.215h-4.49701h-115.215
v0.363998v5.895l-17.197 -7.899l-9.176 -0.182999l0.607002 0.363998h-0.607002l26.798 17.076v9.845l-21.937 12.518l0.972 -0.182999l-0.972 0.548004l35.245 -6.685h77.783l6.198 18.838h0.121994l6.319 445.73h-5.16499v6.25803h5.286v2.00598h-5.286v6.32001h5.40799
l0.0610046 4.37601c-19.423 5.68399 -33.665 24.463 -33.665 46.729c0 21.287 13.05 39.359 31.174 45.88v4.55801h-3.343v3.64499h3.343v4.37601h-3.343v3.646h3.343v4.375h-3.343v3.646h3.343v4.43701h-3.343v3.58499h3.343v4.435h-3.343v3.586h3.343v9.29703h-5.955
v3.646h8.689l6.077 15.192h-3.52499v5.651h5.287v20.844h-2.97701v5.651h2.97701v84.041h-2.61301v2.97803h2.61301v62.834h-2.61301v5.651h2.61301v104.885z" />
    <glyph glyph-name="zero" unicode="0" horiz-adv-x="1024" 
d="M503 656c99 -37 170 -133 170 -245c0 -144 -117 -261 -261 -261s-261 117 -261 261c0 112 71 208 170 245v-116c-40 -29 -66 -76 -66 -129c0 -87 70 -157 157 -157s157 70 157 157c0 53 -26 100 -66 129v116zM361 461v267h102v-267h-102z" />
    <glyph glyph-name="one" unicode="1" horiz-adv-x="600" 
d="M370 195h5v-45c0 -14 -4.83301 -25.834 -14.5 -35.5c-9.66699 -9.667 -21.5 -14.5 -35.5 -14.5h-125l-75 -75v75h-25c-13.3333 0 -25 4.833 -35 14.5s-15 21.5 -15 35.5v150c0 13.334 5 25.001 15 35c10 10 21.6667 15 35 15h95v-155h175zM500 475
c14 0 25.833 -5 35.5 -15c9.66602 -10 14.499 -21.667 14.5 -35v-150c0 -14 -4.83301 -25.833 -14.5 -35.5s-21.5 -14.5 -35.5 -14.5h-25v-75l-75 75h-175v200c0 13.334 5 25.001 15 35c10 10 21.667 15 35 15h225z" />
    <glyph glyph-name="two" unicode="2" horiz-adv-x="581" 
d="M523 490c6.66998 -19.333 9.00299 -37.833 7 -55.5s-6.66901 -34 -14 -49c-7.33301 -15 -16.5 -28.834 -27.5 -41.5c-11 -12.668 -22.5 -23.334 -34.5 -32l9 -13c2.66699 -3.33301 4.33301 -7.66699 5 -13s0.333008 -10 -1 -14l-25 -78
c-1.33301 -4 -3.66699 -8.16701 -7 -12.5s-6.66699 -7.83299 -10 -10.5l-233 -165c-5.33299 -4 -10.833 -6 -16.5 -6s-10.5 2.66667 -14.5 8l-106 153c-4 5.33299 -5.3333 11.5 -4 18.5s4.6667 12.5 10 16.5l233 165c3.33499 2 7.50101 3.83301 12.5 5.5
c5 1.66699 9.83301 2.5 14.5 2.5l79 1c4.00101 -0.666992 8.168 -2.16699 12.5 -4.5c4.33301 -2.33301 7.83301 -5.16699 10.5 -8.5l14 -20c8.66699 6.66699 17.667 14.667 27 24c9.33499 9.33401 17.168 20 23.5 32c6.336 12 10.669 25.333 13 40
c2.327 14.667 0.493988 30.333 -5.5 47c-3.33301 9.336 -0.333008 15.669 9 19c9.33301 3.33301 15.667 0.333008 19 -9zM415 256c6.66699 4.66699 11.333 10.667 14 18c2.66699 7.33401 3.33301 14.668 2 22c-2.66699 -2 -5.16699 -3.66699 -7.5 -5
s-4.83301 -2.66699 -7.5 -4c-1.33301 -0.664001 -3.66699 -0.997986 -7 -1c-6.668 0.00201416 -11.002 2.66901 -13 8c-2 4 -2.16699 8 -0.5 12s4.16699 7 7.5 9c0.666992 0 4.66699 2 12 6c-6.66699 5.33701 -14.167 8.17001 -22.5 8.5
c-8.33301 0.333008 -16.167 -2.16699 -23.5 -7.5c-9.33301 -6.668 -14.833 -15.335 -16.5 -26c-1.66101 -10.667 0.505005 -20.667 6.5 -30c6.66699 -9.33301 15.333 -15 26 -17c10.667 -1.99899 20.667 0.335007 30 7z" />
    <glyph glyph-name="three" unicode="3" horiz-adv-x="1024" 
d="M288 725c-59.333 0 -110 -21 -152 -63s-63 -92.667 -63 -152c-1.3333 -32 4.5 -64.334 17.5 -97c13 -32.667 29.833 -62.334 50.5 -89c20.667 -26.667 47.167 -55.334 79.5 -86c32.334 -30.667 62.667 -57.333 91 -80s61.5 -49.333 99.5 -80
c38 -30.6667 68.333 -56.3333 91 -77c20.667 16.6667 46.667 37.5 78 62.5s57.167 45.667 77.5 62c20.333 16.333 43.833 36.167 70.5 59.5c26.668 23.333 48.501 43.667 65.5 61c17.001 17.333 34.834 37.5 53.5 60.5c18.667 23 33.167 44.5 43.5 64.5s19 42 26 66
s10.5 48.333 10.5 73c0 60 -20.167 110.834 -60.5 152.5c-40.334 41.666 -90.167 62.5 -149.5 62.5c-22 0 -44.5 -6 -67.5 -18c-23 -12.004 -43 -26.67 -60 -44c-17 -17.335 -32.5 -34.501 -46.5 -51.5c-14 -17 -24.333 -31.5 -31 -43.5l-11 -18
c-2.66901 4.66998 -6.336 11.004 -11 19c-4.66699 8 -14.667 22 -30 42s-30.833 37.667 -46.5 53s-35 29.333 -58 42c-23 12.668 -45.5 19.001 -67.5 19z" />
    <glyph glyph-name="four" unicode="4" horiz-adv-x="1035" 
d="M63 283c299 0 446 346 745 347c51 -111 104 -223 156 -335c-299 0 -425 -322 -745 -347c-52 112 -104 223 -156 335zM159 230c34 -73 68 -145 102 -218c85 16 157 58 226 109c-39 15 -68 47 -85 83c-19 42 -22 88 -16 134c-69 -50 -141 -93 -227 -108zM868 348
c-35 73 -68 146 -102 218c-85 -16 -158 -58 -227 -110c40 -14 68 -47 85 -82c19 -42 23 -88 16 -134c69 51 142 93 228 108zM342 104c-5 10 -9 19 -14 29c-2 -1 -5 -2 -8 -2c1 -11 3 -21 5 -32c6 1 12 2 17 5v0zM364 122c3 5 6 11 9 17c-11 3 -21 6 -31 10
c-1 -3 -3 -6 -4 -8c8 -6 17 -13 26 -19zM297 104c4 10 7 19 11 28c-3 1 -6 3 -7 4c-7 -8 -14 -15 -21 -23c5 -4 11 -8 17 -9zM374 168c-1 6 -2 12 -4 18h-1v0c-9 -6 -18 -11 -28 -16v-1c2 -2 2 -5 2 -8c12 2 21 4 31 7zM263 135c11 4 20 7 30 12c-1 3 -2 4 -2 7
c-11 -1 -23 -1 -34 -1c1 -6 3 -12 6 -18v0zM333 179c6 9 13 18 19 27c-5 4 -10 7 -15 8c-4 -10 -8 -20 -11 -31c2 -1 5 -3 7 -4zM292 166c2 2 3 5 4 8c-8 6 -16 13 -25 20c-5 -5 -7 -9 -9 -16c10 -4 21 -8 30 -12zM314 184c-1 11 -3 21 -4 32c-6 -1 -12 -3 -18 -5v0v0
c3 -6 4 -9 7 -15c-3 6 -4 9 -7 15c5 -10 9 -20 14 -30v0c3 2 5 2 8 3zM698 373c-11 26 -23 50 -35 75c-6 -3 -10 -5 -15 -9c12 -25 22 -50 34 -75c6 4 9 6 16 9zM768 407c-11 24 -24 49 -35 74c-6 -2 -9 -4 -16 -7c12 -24 24 -49 35 -73c7 2 10 3 16 6zM733 391
c-12 26 -24 50 -36 75c-6 -3 -9 -5 -15 -8c12 -24 24 -49 35 -74c6 2 9 4 16 7z" />
    <glyph glyph-name="five" unicode="5" horiz-adv-x="643" 
d="M250 329c11 13 28 17 52 19v-68c-40 4 -60 7 -60 31c0 6 2 12 8 18zM336 136v73c47 -4 62 -7 62 -28c0 -24 -19 -39 -62 -45zM392 331c24 -13 29 -19 29 -30l6 -3l36 72l-5 4c-5 -4 -8 -6 -11 -6s-6 0 -10 3c-49 19 -72 28 -101 28v14c0 7 4 12 16 15v7h-63v-7
c11 -3 13 -9 13 -15v-12c-77 -3 -122 -40 -122 -98c0 -59 32 -80 122 -88v-77c-62 6 -93 30 -93 51l-6 3l-33 -75l5 -3c5 3 7 4 10 4c1 0 5 0 7 -2c38 -19 75 -30 110 -32v-15c0 -8 -2 -13 -13 -16v-7h63v7c-12 3 -16 7 -16 16v15c77 4 127 43 127 101c0 56 -42 85 -119 92
h-8v70c18 -1 37 -6 56 -16zM425 476c93 -40 158 -132 158 -240c0 -145 -117 -262 -261 -262c-145 0 -262 117 -262 262c0 108 65 200 158 240l-65 143c0 14 9 20 22 20h293c13 0 22 -5 22 -20z" />
    <glyph glyph-name="six" unicode="6" horiz-adv-x="1024" 
d="M134 386v-390h760v390h-760zM174 346h680v-30h-325v-280h-30v280h-325v30zM134 536v-160h760v160h-760zM234 516h60l-60 -120h-60zM374 516h60l-60 -120h-60zM514 516h60l-60 -120h-60zM654 516h60l-60 -120h-60zM794 516h60l-60 -120h-60zM106 713l29 -157l747 139
l-29 157zM208 712l59 11l-37 -129l-59 -11zM345 738l59 11l-37 -129l-59 -11zM483 763l59 11l-37 -129l-59 -11zM621 789l59 11l-37 -129l-59 -11zM758 814l59 11l-37 -128l-59 -11z" />
    <glyph glyph-name="seven" unicode="7" horiz-adv-x="1024" 
d="M169 658h44v-78c0 -27 22 -49 49 -49c28 0 50 22 50 49v78h197v-78c0 -27 22 -49 50 -49c27 0 50 22 50 49v78h46v-502h-486v502zM262 728c17 0 30 -13 30 -30v-116c0 -17 -13 -30 -30 -30c-16 0 -30 13 -30 30v116c0 17 14 30 30 30zM559 728c16 0 30 -13 30 -30v-116
c0 -17 -14 -30 -30 -30c-17 0 -30 13 -30 30v116c0 17 13 30 30 30zM367 364c15 5 26 12 34 23c8 10 12 24 12 40c0 24 -8 42 -25 54c-16 12 -41 18 -73 18c-13 0 -25 -1 -38 -3c-12 -2 -25 -5 -38 -9v-53c11 5 21 9 32 12c11 2 21 4 32 4c14 0 25 -3 33 -9s12 -15 12 -25
c0 -12 -4 -21 -12 -26c-8 -6 -21 -9 -37 -9h-27v-47h26c18 0 32 -3 41 -10c10 -6 15 -16 15 -29c0 -12 -5 -22 -14 -28c-9 -7 -23 -10 -40 -10c-12 0 -24 1 -36 5c-12 3 -24 8 -36 15v-56c13 -4 26 -6 39 -8s26 -6 39 -6c37 0 65 8 84 22c19 15 29 36 29 64
c0 18 -5 34 -14 46c-8 12 -21 21 -38 25zM464 263v-50h145v50h-41v231h-62l-44 -14v-49l44 14v-182h-42z" />
    <glyph glyph-name="eight" unicode="8" horiz-adv-x="842" 
d="M789 386c11 -11 11 -28 0 -40l-54 -55c-11 -11 -28 -11 -40 0l-12 13c-9 8 -13 23 -8 30c9 6 6 24 -11 40c-24 25 -55 26 -67 13c-5 -4 -21 -21 -21 -21l-74 73l12 12s3 3 9 10c23 23 -1 49 -1 49c-65 64 -156 63 -156 63l-1 23c183 47 252 -33 277 -58l53 -53
c13 -13 0 -50 19 -71c9 -9 21 -13 30 -13c10 9 26 6 34 -3zM464 251l176 -158c25 -25 24 -65 -1 -91c-26 -25 -66 -25 -91 1l-161 170l-150 -181c-14 -15 -39 -15 -54 0l-39 40c-15 14 -15 39 0 54l172 160l-83 80c-27 26 -43 34 -65 27c-22 -8 -53 -8 -82 11
c-62 40 -58 115 -58 115l5 8s56 -36 63 -40c9 -7 40 -21 68 22c29 43 5 70 -3 75c-7 4 -63 41 -63 41l5 8s65 33 126 -3c0 -2 15 -11 21 -16c39 -35 39 -74 32 -106c-6 -29 0 -39 23 -64l83 -83l99 101l72 -74zM617 24c13 12 13 35 0 48s-34 13 -48 0c-12 -13 -12 -35 0 -47
c14 -13 35 -15 48 -1z" />
    <glyph glyph-name="nine" unicode="9" horiz-adv-x="589" 
d="M445 211h2l94 -179l-100 -8l-63 -74l-83 131l-83 -131l-67 75l-97 7l94 179l1 1c1 -7 4 -12 8 -18c7 -10 18 -16 31 -23c11 -4 21 -6 30 -6c10 0 20 2 26 6c5 -4 10 -9 16 -12c10 -6 23 -10 38 -10c14 0 26 4 37 10c6 3 10 8 14 12c9 -4 18 -6 28 -6c9 0 18 2 29 6
c15 7 24 13 31 23c4 6 8 11 10 18c1 -1 2 -1 4 -1zM525 447c4 -6 6 -15 6 -25s-2 -18 -6 -24c-5 -11 -63 -8 -74 -8h-2h2c10 -5 64 -23 65 -34c2 -8 0 -16 -4 -26c-8 -22 -23 -27 -32 -27c-6 0 -50 26 -52 28l-3 1l1 -1c6 -6 52 -46 48 -56c-2 -8 -6 -15 -13 -22
c-10 -10 -19 -15 -30 -15c-6 0 -43 43 -49 49l-1 1v-3c4 -8 29 -61 23 -69c-5 -6 -11 -12 -21 -15c-7 -3 -14 -5 -20 -5c-13 0 -34 56 -40 66v2v-2c0 -10 3 -68 -7 -73c-6 -5 -15 -7 -24 -7c-11 0 -19 2 -25 7c-10 5 -7 63 -7 73v2l-1 -2c-4 -10 -26 -66 -40 -66
c-5 0 -12 2 -20 5c-9 3 -15 9 -20 15c-7 8 18 61 22 69l2 3l-4 -1c-6 -6 -42 -49 -48 -49c-9 0 -19 5 -29 15c-7 7 -12 14 -13 22c-3 10 40 50 46 56l3 1l-4 -1c-2 -2 -46 -28 -50 -28c-11 0 -24 5 -34 27c-4 10 -5 18 -4 26c1 11 56 29 66 34h2h-2c-10 0 -68 -3 -74 8
c-5 6 -6 14 -6 24s1 19 6 25c6 9 64 6 74 6h2l-2 1c-10 4 -65 23 -66 35c-1 7 0 16 4 25c10 22 23 26 34 26c4 0 48 -26 50 -28l4 -1l-3 3c-6 6 -49 45 -46 56c1 7 6 14 13 22c10 9 20 13 29 13v0c6 0 42 -40 48 -47l4 -3l-2 4c-4 8 -29 60 -22 70c5 6 11 10 20 14
c8 3 15 4 20 4v0v0c14 0 36 -55 40 -66l1 -2v2c0 11 -3 69 7 75c6 4 14 6 25 6c9 0 18 -2 24 -6c10 -6 7 -64 7 -75v-2v2c6 11 27 66 40 66c6 0 13 -1 20 -4c10 -4 16 -8 21 -14c6 -10 -19 -62 -23 -70v-4l1 3c6 7 43 47 49 47v0v0c11 0 20 -4 30 -13c7 -8 11 -15 13 -22
c4 -11 -42 -50 -48 -56l-1 -3l3 1c2 2 46 28 52 28v0v0c9 0 24 -4 32 -26c4 -9 6 -18 4 -25c-1 -12 -55 -31 -65 -35l-2 -1h2c11 0 69 3 74 -6zM292 267c85 0 154 70 154 155c0 86 -69 156 -154 156c-86 0 -157 -70 -157 -156c0 -85 71 -155 157 -155zM292 303
c66 0 118 53 118 119c0 67 -52 120 -118 120c-67 0 -121 -53 -121 -120c0 -66 54 -119 121 -119z" />
    <glyph glyph-name="colon" unicode=":" horiz-adv-x="790" 
d="M437.934 -53.9111h-274.868v292.599h-106.399l443.333 452.201l159.6 -162.784v82.984h124.133v-209.617l159.6 -162.784h-106.399v-292.599h-274.868v239.4h-124.132v-239.4z" />
    <glyph glyph-name="semicolon" unicode=";" horiz-adv-x="649" 
d="M406 323h183v-138h-183v-185h-143v185h-183v138h183v175h143v-175z" />
    <glyph glyph-name="less" unicode="&#x3c;" horiz-adv-x="545" 
d="M492 451c0 -83 -64 -164 -106 -225c-90 -129 -103 -238 -103 -238c-2 -9 -10 -9 -12 0c0 0 -17 109 -105 238c-73 102 -106 142 -106 225c0 119 95 214 215 214c119 0 217 -95 217 -214zM277 362c47 0 83 39 83 85s-36 82 -83 82c-44 0 -81 -36 -81 -82s37 -85 81 -85z
" />
    <glyph glyph-name="equal" unicode="=" horiz-adv-x="765" 
d="M315 50c0 37 -30 67 -67 67s-67 -30 -67 -67s30 -67 67 -67s67 30 67 67zM639 50c-1 37 -30 67 -67 67c-36 0 -66 -30 -66 -67s30 -67 66 -67c37 0 67 30 67 67zM634 470c22 -1 39 -18 39 -40v-225c0 -23 -18 -41 -41 -41h-382c-19 0 -36 15 -39 34l-71 254
s-12 46 -33 52c-33 9 -79 -9 -79 44c0 34 31 34 31 34c1 0 7 1 15 1c48 0 105 -18 127 -82zM601 336v65l-91 7v-72h91zM378 336h100v74l-100 7v-81zM478 313h-100v-77h100v77zM346 419l-128 8l30 -91h98v83zM256 313l24 -77h66v77h-90zM510 236h91v77h-91v-77z" />
    <glyph glyph-name="greater" unicode="&#x3e;" horiz-adv-x="976" 
d="M100 0v595h776v-595h-776zM515 361v-127h127v127h-127zM515 54h127v126h-127v-126zM642 541h-127v-126h127v126zM822 234v127h-126v-127h126zM696 54h126v126h-126v-126zM822 415v126h-126v-126h126zM154 361v-127h127v127h-127zM154 54h127v126h-127v-126zM281 541h-127
v-126h127v126zM461 234v127h-126v-127h126zM335 54h126v126h-126v-126zM461 415v126h-126v-126h126z" />
    <glyph glyph-name="question" unicode="?" horiz-adv-x="841" 
d="M228 547v-129h-128v129h128zM228 363v-130h-128v130h128zM228 179v-128h-128v128h128zM741 504v-65h-427v65h427zM741 320v-65h-427v65h427zM741 146v-65h-427v65h427z" />
    <glyph glyph-name="at" unicode="@" horiz-adv-x="813" 
d="M268 447h-168v148h168v-148zM120 316v55h128v-55h-128zM120 176v55h128v-55h-128zM120 36v55h128v-55h-128zM490 447h-168v148h168v-148zM342 316v55h128v-55h-128zM342 176v55h128v-55h-128zM342 36v55h128v-55h-128zM713 447h-168v148h168v-148zM565 316v55h128v-55
h-128zM565 176v55h128v-55h-128zM565 36v55h128v-55h-128z" />
    <glyph glyph-name="A" unicode="A" horiz-adv-x="880" 
d="M128 66c-15 0 -30 5 -42 15c-29 23 -34 66 -10 95l192 238c21 26 58 33 87 16l183 -107l162 200c23 28 66 33 95 9c29 -23 33 -66 10 -95l-198 -244c-21 -25 -58 -32 -87 -15l-183 106l-156 -193c-14 -17 -33 -25 -53 -25z" />
    <glyph glyph-name="B" unicode="B" horiz-adv-x="744" 
d="M244 430v-430h-144v430h144zM444 320v-320h-144v320h144zM644 595v-595h-144v595h144z" />
    <glyph glyph-name="C" unicode="C" horiz-adv-x="734" 
d="M674 334h-265v268c147 0 265 -118 265 -265v-3zM325 250h266v3c0 -147 -119 -265 -266 -265s-265 118 -265 265s118 266 265 266v-269z" />
    <glyph glyph-name="D" unicode="D" horiz-adv-x="830" 
d="M790 481l-428 -480l-272 270l98 99l157 -156l336 366z" />
    <glyph glyph-name="E" unicode="E" 
d="M500 693.456l99.129 -305.105h320.815l-259.546 -188.566l99.147 -305.108l-259.545 188.564l-259.545 -188.564l99.147 305.108l-259.546 188.566h320.815z" />
    <glyph glyph-name="F" unicode="F" 
d="M222.421 -114.219l106.132 326.622l-277.846 201.861h343.437l106.122 326.622l106.123 -326.622h343.435l-277.845 -201.861l106.132 -326.622l-277.845 201.861zM413 391.334h-288.075l233.057 -169.322l-89.023 -273.973l233.058 169.322l233.057 -169.322
c2.75604 -8.4786 -62.784 193.223 -89.0229 273.973l233.057 169.322h-288.075l-89.016 273.973z" />
    <glyph glyph-name="G" unicode="G" horiz-adv-x="791" 
d="M685 623c19 0 36 -16 36 -36s-17 -36 -36 -36h-5l-108 -550h-350l-107 550h-9c-20 0 -36 16 -36 36s16 36 36 36h579zM368 537l-15 14h-94l-15 -14l62 -62zM213 331l20 -103l48 48l-62 61zM244 363l62 -62l62 62l-62 61zM393 337l-61 -61l61 -62l62 62zM419 363l61 -62
l62 62l-62 61zM393 388l62 62l-62 61l-61 -61zM219 511l-35 -34l14 -68l21 -21l62 62zM306 250l-62 -62l62 -61l62 61zM393 163l-61 -62l46 -46h30l47 46zM480 127l62 61l-62 62l-61 -62zM560 221l20 103l-13 13l-61 -61zM599 419l10 51l-42 41l-61 -61l61 -62zM542 537
l-15 14h-94l-14 -14l61 -62zM176 519l32 32h-38zM253 129l14 -74h60zM544 139l-85 -84h68zM617 513l8 38h-47z" />
    <glyph glyph-name="H" unicode="H" horiz-adv-x="1061" 
d="M241 320c7 0 13 7 13 14s-6 13 -13 13h-80c-7 0 -14 -6 -14 -13s7 -14 14 -14h80zM241 262c7 0 13 7 13 14s-6 13 -13 13h-80c-7 0 -14 -6 -14 -13s7 -14 14 -14h80zM409 251c95 0 169 -34 232 -97v301c-62 -66 -137 -101 -232 -101v-103zM807 427l-27 27l110 109l27 -26
zM827 287v38h184v-38h-184zM780 150l27 27l110 -110l-27 -26zM678 563c16 0 29 -12 29 -27v-462c0 -15 -13 -27 -29 -27s-28 12 -28 27c-47 58 -130 132 -254 132h-51l112 -189l-68 -49c-17 -9 -35 2 -45 14l-139 224h-75s-70 38 -70 98s70 94 70 94h266
c124 0 207 77 254 138c0 15 12 27 28 27z" />
    <glyph glyph-name="I" unicode="I" horiz-adv-x="574" 
d="M364 226h170l-246 -245l-248 247h170l-2 269h156v-271z" />
    <glyph glyph-name="J" unicode="J" horiz-adv-x="879" 
d="M228 497v-129h-128v129h128zM413 497v-129h-129v129h129zM228 313v-130h-128v130h128zM413 313v-130h-129v130h129zM228 129v-128h-128v128h128zM413 129v-128h-129v128h129zM596 497v-129h-129v129h129zM779 497v-129h-128v129h128zM596 314v-130h-129v130h129zM596 129
v-128h-129v128h129zM779 314v-130h-128v130h128zM779 131v-130h-128v130h128z" />
    <glyph glyph-name="K" unicode="K" horiz-adv-x="574" 
d="M210 271h-170l246 245l248 -247h-170l2 -269h-156v271z" />
    <glyph glyph-name="L" unicode="L" horiz-adv-x="712" 
d="M247 68c0 -41 -34 -73 -74 -73s-73 32 -73 73c0 40 33 73 73 73s74 -33 74 -73zM456 0h-100c0 139 -112 258 -252 258v95c185 0 352 -131 352 -353zM663 0h-109c0 240 -209 449 -450 449v103c296 0 559 -225 559 -552z" />
    <glyph glyph-name="M" unicode="M" horiz-adv-x="799" 
d="M102 394c-18 36 -3 73 22 91c-58 181 334 83 365 54v46c0 13 11 24 23 24h163c13 0 24 -11 24 -24v-385c0 -12 -11 -23 -24 -23h-163c-12 0 -23 11 -23 23v26c-79 -51 -118 -179 -119 -184c-13 -52 -42 -82 -86 -82s-97 43 -97 137c0 23 8 59 23 86h-15
c-58 0 -125 28 -104 113c-22 39 -7 82 11 98zM190 392c13 -1 13 -12 0 -12c-57 0 -59 -60 -7 -62c11 -1 11 -12 0 -12c-52 0 -43 -66 12 -66h60c21 0 30 -13 30 -26c0 -24 -41 -76 -41 -116c0 -51 24 -81 40 -81c17 0 27 14 29 31c12 79 100 213 176 246v181
c-107 53 -201 57 -246 58c-68 3 -102 -51 -32 -66c15 -2 14 -15 2 -15c-71 0 -75 -53 -23 -60z" />
    <glyph glyph-name="N" unicode="N" horiz-adv-x="799" 
d="M697 202c18 -36 3 -73 -22 -91c58 -181 -334 -83 -365 -54v-46c0 -13 -11 -24 -23 -24h-164c-12 0 -23 11 -23 24v385c0 12 11 23 23 23h164c12 0 23 -11 23 -23v-26c78 51 118 179 119 184c12 52 42 82 85 82c45 0 98 -44 98 -137c0 -23 -9 -59 -23 -86h14
c59 0 126 -28 104 -113c23 -39 8 -82 -10 -98zM609 203c-13 2 -13 13 0 13c57 0 59 60 7 62c-11 1 -11 12 0 12c52 0 43 66 -13 66h-59c-21 0 -31 13 -31 26c0 24 42 76 42 116c0 51 -25 81 -41 81c-17 0 -26 -14 -28 -31c-12 -80 -100 -213 -176 -246v-181
c107 -53 201 -57 246 -59c68 -2 102 52 32 67c-15 2 -14 15 -3 15c71 0 76 53 24 59z" />
    <glyph glyph-name="O" unicode="O" 
d="M797.776 732.223c24.191 0 43.791 -19.611 43.791 -43.791v-788.233c0 -24.1902 -19.6 -43.7912 -43.791 -43.7912h-595.552c-24.191 0 -43.791 19.601 -43.791 43.7912v788.233c0 24.18 19.6 43.791 43.791 43.791h595.552zM500 -130.454
c12.104 0 21.896 9.8 21.896 21.894c0 12.0961 -9.79199 21.8959 -21.896 21.8959c-12.095 0 -21.896 -9.7998 -21.896 -21.8959c0 -12.094 9.80099 -21.894 21.896 -21.894zM771.511 -64.4443v717.519c0 5.01898 -4.06396 9.08197 -9.047 9.08197h-524.91
c-4.98399 0 -9.047 -4.06299 -9.047 -9.08197v-717.519c0 -5.0098 4.063 -9.0821 9.047 -9.0821h524.91c4.98303 0 9.047 4.0723 9.047 9.0821z" />
    <glyph glyph-name="P" unicode="P" 
d="M656.513 752.13c38.418 0 69.565 -31.139 69.565 -69.557v-748.538c0 -38.4182 -31.147 -69.5652 -69.565 -69.5652h-313.026c-38.418 0 -69.565 31.147 -69.565 69.5652v748.538c0 38.418 31.147 69.557 69.565 69.557h313.026zM465.789 678.321
c-5.121 0 -9.267 -4.14496 -9.267 -9.26697c0 -5.11304 4.146 -9.258 9.26801 -9.258h68.421c5.112 0 9.258 4.14496 9.258 9.258c0 5.12201 -4.146 9.26697 -9.258 9.26697h-68.422zM425.916 681.872c-6.09 0 -11.043 -4.94403 -11.043 -11.043
c0 -6.09796 4.944 -11.042 11.043 -11.042c6.09802 0 11.042 4.94403 11.042 11.042c0 6.099 -4.944 11.043 -11.042 11.043zM500 -98c24.011 0 43.469 19.457 43.469 43.4688c0 24.0205 -19.458 43.4775 -43.469 43.4775c-24.012 0 -43.478 -19.457 -43.478 -43.4775
c0 -24.0118 19.466 -43.4688 43.478 -43.4688zM691.291 19.9082v576.784h-382.582v-576.784h382.582z" />
    <glyph glyph-name="Q" unicode="Q" 
d="M956.493 636.483l0.174011 -586.25c0 -12.6133 -10.221 -22.833 -22.834 -22.833h-867.666c-12.6133 0 -22.834 10.2197 -22.834 22.833l0.173801 586.25c0.885799 11.791 10.6407 21.117 22.6602 21.117h867.666c12.02 0 21.774 -9.32599 22.66 -21.117zM920.133 137
v484.066h-840.267v-484.066h840.267zM646.133 -82.2002c8.85901 -2.21 9.13403 -18.2668 0 -18.2668h-146.133h-146.134c-9.133 0 -8.85901 16.0568 0 18.2668c36.534 9.1338 45.667 36.5332 45.667 73.0664v9.13379h100.467h100.467v-9.13379
c0 -36.5332 9.133 -63.9326 45.666 -73.0664z" />
    <glyph glyph-name="R" unicode="R" 
d="M916.877 349.537l-0.00299072 -0.0239868c-0.0310059 -1.20901 -50.897 -393.503 -50.897 -393.503c-7.00299 -54.96 -50.479 -81.4048 -90.952 -76.2508l-636.17 82.1697c-40.7798 5.3359 -76.0454 41.9492 -69.023 96.9063c0 0 50.791 392.302 50.897 393.504
c6.328 48.605 49.541 80.539 91.287 75.216l143.715 -18.545l97.548 194.488l103.402 -13.354l103.403 -13.356l43.978 -212.761l144.129 -18.601c41.43 -5.38599 75.101 -47.294 68.686 -95.889zM466.222 659.126l0.00402832 0.0270386l-58.187 -156.864l243.732 -31.479
l-15.493 166.38l-85.028 10.968z" />
    <glyph glyph-name="S" unicode="S" 
d="M864.597 332.316c-0.026001 -1.05301 -42.871 -335.738 -42.871 -335.738c-5.89703 -46.8974 -42.514 -69.4521 -76.598 -65.0547l-535.797 70.0977c-34.346 4.55762 -64.045 35.793 -58.132 82.6807c0 0 42.776 334.694 42.863 335.72
c5.32901 41.473 41.728 68.717 76.886 64.178l121.041 -15.83l82.153 165.936l87.088 -11.397l87.088 -11.396l37.045 -181.519l121.382 -15.865c34.897 -4.60098 63.259 -40.349 57.852 -81.813zM485.043 596.443l-49.003 -133.806l205.281 -26.856l-13.05 141.948
l-71.609 9.362zM558.994 309.026c2.18396 15.751 -8.64703 30.325 -24.187 32.536c-15.548 2.21198 -29.917 -8.76801 -32.102 -24.528c-2.18399 -15.759 8.64001 -30.323 24.188 -32.535c15.54 -2.21201 29.918 8.76901 32.101 24.527zM495.988 282.791
c-19.925 2.841 -34.704 -11.812 -37.551 -32.358l-12.142 -87.521c-2.358 -17.034 19.724 -20.175 22.091 -3.15001l11.827 85.263l7.09299 -1.008l-24.563 -177.103l31.611 -4.4942l11.085 79.9191l7.09299 -1.009l-11.285 -79.8925l31.611 -4.4951l24.764 177.068
l6.89301 -0.983002l-11.827 -85.264c-2.37598 -17.149 19.557 -20.272 21.889 -3.11501l12.08 87.114c2.63 18.944 -5.77301 38.951 -27.645 42.056zM360.718 332.422c2.15701 15.573 -8.69199 29.988 -24.231 32.2c-15.549 2.21201 -29.9 -8.61902 -32.057 -24.192
c-2.159 -15.574 8.69101 -29.988 24.23 -32.2c15.549 -2.211 29.901 8.61899 32.058 24.192zM297.773 306.594c-19.933 2.84 -34.677 -11.618 -37.5 -31.926l-11.993 -86.503c-2.341 -16.82 19.75 -19.971 22.082 -3.14099l11.697 84.264l7.09201 -1.009l-24.283 -175.022
l31.612 -4.5039l10.963 78.9901l7.09302 -1.009l-11.164 -78.9547l31.621 -4.5039l24.476 174.996l6.89099 -0.980988l-11.687 -84.265c-2.35001 -16.953 19.584 -20.077 21.882 -3.114l11.94 86.087c2.604 18.724 -5.83499 38.518 -27.698 41.632zM747.731 277.942
c2.15796 15.574 -8.69104 29.996 -24.231 32.208c-15.548 2.21201 -29.899 -8.62698 -32.057 -24.191c-2.15802 -15.573 8.69202 -29.996 24.231 -32.209c15.549 -2.21201 29.9 8.61899 32.057 24.192zM684.036 246.751c-19.925 2.84099 -34.679 -11.618 -37.491 -31.934
l-12.002 -86.494c-2.33203 -16.83 19.759 -19.971 22.0909 -3.141l11.687 84.264l7.09302 -1.017l-24.274 -175.015l31.612 -4.5039l10.953 78.9818l7.09296 -1.009l-11.154 -78.9553l31.612 -4.4951l24.484 174.988l6.89203 -0.983002l-11.696 -84.254
c-2.34998 -16.9545 19.584 -20.0776 21.889 -3.116l11.942 86.087c2.59296 18.724 -5.83502 38.518 -27.7 41.623z" />
    <glyph glyph-name="T" unicode="T" horiz-adv-x="770" 
d="M385 628c179 0 325 -145 325 -325c0 -179 -146 -325 -325 -325c-180 0 -325 146 -325 325c0 180 145 325 325 325zM385 50c140 0 253 114 253 254s-113 253 -253 253s-254 -113 -254 -253s114 -254 254 -254zM471 264c44 0 49 72 0 72h-77l-94 104
c-32 32 -83 -16 -52 -49l105 -115c6 -8 15 -12 26 -12h92z" />
    <glyph glyph-name="U" unicode="U" horiz-adv-x="779" 
d="M748 0h-716s-3 9 0 57c41 21 234 73 245 78l1 36l15 4s6 56 6 65c0 0 -23 45 -28 71c0 0 -19 0 -21 19c-3 20 0 33 -5 48c-3 14 8 29 17 26c0 0 -20 103 0 131c14 20 57 71 158 89c0 0 25 3 33 -1c6 -2 5 -4 -7 -17c0 0 52 -32 69 -83c10 -32 6 -101 0 -119
c0 0 15 3 13 -16c-3 -31 -4 -88 -26 -77c0 0 -1 -64 -20 -77c0 0 -6 -50 3 -52h13s5 -41 15 -52c0 0 214 -55 235 -79c1 -26 0 -51 0 -51z" />
    <glyph glyph-name="V" unicode="V" horiz-adv-x="967" 
d="M206 594h661v-505c0 -47 -41 -89 -84 -89h-574c-71 0 -109 37 -109 127v369h106v98zM206 127v315h-52v-315c0 -46 11 -68 25 -68c17 0 27 22 27 68zM813 89v451h-553v-413c0 -32 -6 -55 -15 -73h538c18 0 30 21 30 35zM473 197v-18h-127v18h127zM473 140v-18h-127v18h127
zM523 165v203h213v-203h-213zM473 309v-18h-127v18h127zM473 252v-18h-127v18h127zM473 368v-18h-127v18h127zM365 426v35h333v-35h-333z" />
    <glyph glyph-name="W" unicode="W" horiz-adv-x="909" 
d="M564 213l206 -213h-631l207 211l108 -102zM150 497h608l-304 -289zM603 250l206 194v-407zM100 37v407l207 -195z" />
    <glyph glyph-name="X" unicode="X" horiz-adv-x="688" 
d="M584 207c-44 -44 -101 -66 -158 -66c-52 0 -103 18 -145 53l-41 -100l-104 -104c-11 -8 -23 -12 -36 -12c-33 0 -60 29 -60 61c0 13 4 26 12 36l103 104l101 41c-35 42 -53 94 -53 146c0 121 102 221 223 221c120 0 222 -102 222 -222c0 -58 -21 -115 -64 -158zM329 267
c27 -26 62 -40 97 -40c74 0 136 62 136 138c0 74 -63 136 -136 136c-75 0 -137 -63 -137 -136c0 -36 13 -71 40 -98z" />
    <glyph glyph-name="Y" unicode="Y" horiz-adv-x="769" 
d="M385 628c181 0 324 -144 324 -323c0 -181 -143 -325 -324 -325c-180 0 -325 144 -325 325c0 179 145 323 325 323zM403 41c52 0 80 90 93 135c-31 -3 -62 -5 -93 -6v-129zM300 106c15 -36 38 -65 65 -65v129c-31 1 -62 3 -92 6c6 -26 15 -49 27 -70zM122 268
c13 -15 46 -35 106 -46c-4 25 -6 53 -6 80c0 20 1 36 3 55c-46 9 -73 16 -94 25c-7 -24 -11 -51 -11 -77c0 -13 0 -26 2 -37zM258 302c0 -29 2 -60 6 -87c34 -6 67 -9 101 -10v141c-36 1 -72 3 -106 7c0 -18 -1 -33 -1 -51zM363 567c-45 -18 -83 -88 -99 -180
c33 -3 67 -5 101 -6v186h-2zM429 553c-9 6 -19 14 -26 14v-186c35 1 68 3 102 6c-13 72 -42 135 -76 166zM403 205c35 1 68 4 101 9c5 27 6 58 6 88c0 18 0 33 -1 50c-34 -3 -69 -5 -106 -6v-141zM544 357c2 -19 2 -35 2 -55c0 -27 -2 -56 -5 -81c104 17 108 41 108 84
c0 25 -4 52 -12 76c-19 -8 -53 -20 -93 -24zM623 416c-28 62 -81 112 -143 134c30 -39 49 -94 59 -159c54 10 76 19 84 25zM198 490c-23 -21 -40 -47 -52 -73c9 -8 24 -9 83 -25c11 64 30 117 60 157c-34 -16 -64 -30 -91 -59zM198 118c24 -26 54 -44 85 -57
c-23 32 -38 73 -48 121c-40 9 -76 20 -100 33c15 -37 34 -70 63 -97zM571 118c28 26 47 58 60 93c-26 -12 -60 -22 -97 -30c-11 -48 -25 -87 -49 -120c31 13 62 31 86 57z" />
    <glyph glyph-name="Z" unicode="Z" horiz-adv-x="769" 
d="M385 628c181 0 324 -144 324 -323c0 -181 -143 -325 -324 -325c-180 0 -325 144 -325 325c0 179 145 323 325 323zM452 305l100 100l-68 67l-99 -100l-101 101l-67 -68l101 -100l-101 -100l67 -68l101 101l99 -100l68 67z" />
    <glyph glyph-name="bracketleft" unicode="[" horiz-adv-x="821" 
d="M168 594h486c46 0 67 -21 67 -68v-310c0 -44 -21 -65 -67 -65h-219l-242 -195l50 195h-75c-46 0 -68 21 -68 67v308c0 47 22 69 68 68zM228 468v-66h365v66h-365zM593 277v66h-365v-66h365z" />
    <glyph glyph-name="dollar" unicode="$" horiz-adv-x="520" 
d="M260 460c28.667 0 55.833 -5.5 81.5 -16.5s48 -26 67 -45s34 -41.334 45 -67c11 -25.667 16.5 -52.834 16.5 -81.5c0 -29.333 -5.5 -56.667 -16.5 -82s-26 -47.5 -45 -66.5s-41.334 -34 -67 -45c-25.667 -11 -52.834 -16.5 -81.5 -16.5c-29.333 0 -56.667 5.5 -82 16.5
s-47.5 26 -66.5 45s-34 41.167 -45 66.5s-16.5 52.667 -16.5 82c0 28.667 5.5 55.833 16.5 81.5s26 48 45 67s41.167 34 66.5 45s52.667 16.5 82 16.5zM133 276v-51h253v51h-253z" />
    <glyph glyph-name="percent" unicode="%" horiz-adv-x="520" 
d="M260 460c28.667 0 55.833 -5.5 81.5 -16.5s48 -26 67 -45s34 -41.334 45 -67c11 -25.667 16.5 -52.834 16.5 -81.5c0 -29.333 -5.5 -56.667 -16.5 -82s-26 -47.5 -45 -66.5s-41.334 -34 -67 -45c-25.667 -11 -52.834 -16.5 -81.5 -16.5c-29.333 0 -56.667 5.5 -82 16.5
s-47.5 26 -66.5 45s-34 41.167 -45 66.5s-16.5 52.667 -16.5 82c0 28.667 5.5 55.833 16.5 81.5s26 48 45 67s41.167 34 66.5 45s52.667 16.5 82 16.5zM387 224v51h-101v101h-51v-101h-101v-51h101v-100h51v100h101z" />
    <glyph glyph-name="ampersand" unicode="&#x26;" horiz-adv-x="560" 
d="M280 480c32 0 61.833 -6 89.5 -18s52 -28.5 73 -49.5s37.5 -45.334 49.5 -73c12 -27.667 18 -57.5 18 -89.5s-6 -61.833 -18 -89.5s-28.5 -52 -49.5 -73s-45.334 -37.5 -73 -49.5c-27.667 -12 -57.5 -18 -89.5 -18s-61.833 6 -89.5 18s-52 28.5 -73 49.5
s-37.5 45.333 -49.5 73s-18 57.5 -18 89.5s6 61.833 18 89.5s28.5 52 49.5 73s45.333 37.5 73 49.5s57.5 18 89.5 18zM105 250c0 -42.667 13 -79.667 39 -111l246 246c-15.333 12.667 -32.167 22.5 -50.5 29.5s-38.167 10.5 -59.5 10.5c-24 0 -46.667 -4.5 -68 -13.5
s-40 -21.5 -56 -37.5s-28.5 -34.667 -37.5 -56s-13.5 -44 -13.5 -68zM280 75c24 0 46.667 4.5 68 13.5s39.833 21.5 55.5 37.5s28.167 34.667 37.5 56s14 44 14 68c0 21.333 -3.5 41.333 -10.5 60c-7.00101 18.667 -16.834 35.667 -29.5 51l-246 -247
c15.333 -12 32.333 -21.5 51 -28.5s38.667 -10.5 60 -10.5z" />
    <glyph glyph-name="quotesingle" unicode="'" horiz-adv-x="601" 
d="M436 336h-75v-123h-120v123h-75l135 127zM534 174c6 -3.334 10.5 -8.5 13.5 -15.5c3.008 -7 3.84198 -13.833 2.5 -20.5l-14 -77c-1.336 -6.6667 -5.00299 -12.1667 -11 -16.5c-6 -4.3334 -12.667 -6.5001 -20 -6.5h-408c-7.3333 0 -14 2.1667 -20 6.5
s-10 9.8333 -12 16.5l-14 77c-1.3331 6.66701 -0.499802 13.5 2.5 20.5c3 7 7.5 12.167 13.5 15.5l80 54h49l-85 -66h88c2.66701 0 4.66701 -1 6 -3l21 -56h149l21 56c0.666992 2 2.66699 3 6 3h88l-85 66h50z" />
    <glyph glyph-name="parenleft" unicode="(" horiz-adv-x="500" 
d="M250 212l-135 127h75v123h120v-123h75zM483 174c6 -3.334 10.5 -8.5 13.5 -15.5s3.83301 -13.833 2.5 -20.5l-14 -77c-1.33301 -6.6667 -5 -12.3333 -11 -17s-12.667 -7 -20 -7h-408c-7.3333 0 -14 2.3334 -20 7c-6 4.6667 -10 10.3333 -12 17l-14 77
c-1.33333 6.66701 -0.5 13.5 2.5 20.5s7.5 12.167 13.5 15.5l80 53h49l-85 -65h88c2.66701 0 4.66701 -1 6 -3l21 -56h149l21 56c0.666992 2 2.66699 3 6 3h88l-85 65h49z" />
    <glyph glyph-name="parenright" unicode=")" horiz-adv-x="380" 
d="M330 385c0 -13.333 -5 -26 -15 -38s-21.167 -23.667 -33.5 -35s-23.5 -22.167 -33.5 -32.5s-15 -20.167 -15 -29.5c0 -9.334 5 -19.167 15 -29.5c10 -10.334 21.167 -21.167 33.5 -32.5c12.334 -11.333 23.5 -23.167 33.5 -35.5s15 -25.167 15 -38.5v-58
c0 -5.3334 -3.66699 -11.1667 -11 -17.5s-17.333 -12.3333 -30 -18s-27.5 -10.5 -44.5 -14.5s-35.167 -6 -54.5 -6s-37.5 2 -54.5 6s-31.833 8.8333 -44.5 14.5c-12.6667 5.6667 -22.6667 11.6667 -30 18c-7.3334 6.3333 -11 12.1667 -11 17.5v58c0 13.333 5 26.167 15 38.5
s21.1667 24.167 33.5 35.5c12.333 11.333 23.5 22.167 33.5 32.5s15 20.167 15 29.5c0 9.33401 -5 19.167 -15 29.5c-10 10.334 -21.167 21.167 -33.5 32.5c-12.3333 11.333 -23.5 23 -33.5 35s-15 24.667 -15 38v59c0 4.66699 3.6667 10.333 11 17
c7.3333 6.66699 17.3333 12.833 30 18.5c12.667 5.66699 27.5 10.5 44.5 14.5s35.167 6 54.5 6s37.5 -2 54.5 -6c17 -4.00201 31.833 -8.83499 44.5 -14.5c12.667 -5.66901 22.667 -11.836 30 -18.5c7.33499 -6.668 11.002 -12.334 11 -17v-59zM89 442
c-2.6667 -1.33301 -5.0001 -3 -7 -5c-4 -4 -4 -7 0 -9c10.6667 -6.668 25.5 -12.835 44.5 -18.5c19 -5.66599 40.167 -8.5 63.5 -8.5c24 0 45.667 2.66599 65 8c19.333 5.336 34.333 11.002 45 17c4.66699 3.336 4.83301 6.50299 0.5 9.5
c-4.33301 3.00299 -7.16699 5.17001 -8.5 6.5c-9.33301 4.66699 -19.333 9 -30 13c-9.33299 3.336 -20 6.50299 -32 9.5c-12 3 -24.667 4.5 -38 4.5c-26.667 0 -48.333 -3.16699 -65 -9.5c-16.667 -6.33301 -29.3334 -12.167 -38 -17.5zM203 250
c0 15.333 5.16701 28.333 15.5 39s22.167 22.667 35.5 36c9.33301 9.33401 19.333 19.667 30 31c10.667 11.334 16 21 16 29l1 25c-13.333 -6.66699 -29.5 -12.667 -48.5 -18s-39.833 -8 -62.5 -8c-22 0 -42.667 2.66699 -62 8c-19.333 5.33301 -35.3333 11.333 -48 18
l1 -25c0 -8 5.1666 -17.667 15.5 -29c10.333 -11.333 20.167 -21.667 29.5 -31l36 -36c10.667 -10.667 16 -23.667 16 -39c0 -15.333 -5.33299 -28.333 -16 -39l-36 -36c-9.333 -9.334 -19.167 -19.667 -29.5 -31c-10.3333 -11.333 -15.5 -21.333 -15.5 -30v-33
c6 2.6667 14.5 5.6667 25.5 9s21.667 7.3333 32 12c10.333 4.667 19.5 10.333 27.5 17s12 15 12 25c0.00100708 4.66701 1.334 8.16701 4 10.5s5.5 3.5 8.5 3.5c3 -0.00100708 5.834 -1.168 8.5 -3.5c2.668 -2.33299 4.00101 -5.83299 4 -10.5c0 -10 4 -18.333 12 -25
s17.167 -12.333 27.5 -17c10.333 -4.6667 21 -8.6667 32 -12s19.5 -6.3333 25.5 -9v33c-0.00100708 8.667 -5.33401 18.667 -16 30c-10.667 11.333 -20.667 21.667 -30 31c-13.334 13.333 -25.167 25.333 -35.5 36c-10.334 10.667 -15.5 23.667 -15.5 39z" />
    <glyph glyph-name="asterisk" unicode="*" horiz-adv-x="582" 
d="M287 490c33.333 0.666992 64.667 -5.16699 94 -17.5c29.334 -12.333 55 -29.167 77 -50.5s39.5 -46.5 52.5 -75.5c13.003 -29 19.836 -60.167 20.5 -93.5c0 -33.333 -6 -64.5 -18 -93.5s-28.834 -54.5 -50.5 -76.5c-21.667 -22 -47 -39.5 -76 -52.5
s-59.833 -19.8333 -92.5 -20.5c-33.333 -0.66667 -64.667 5.1667 -94 17.5c-29.333 12.3333 -55 29.1667 -77 50.5c-22 21.3334 -39.5 46.5 -52.5 75.5s-19.5 60.167 -19.5 93.5c-0.666698 32.667 5.1667 63.667 17.5 93c12.3334 29.334 29.1667 55 50.5 77
c21.333 22 46.333 39.5 75 52.5s59.667 19.833 93 20.5zM293 60c26 0.666698 50.5 6.1667 73.5 16.5c23 10.3334 43 24.167 60 41.5c17.001 17.333 30.167 37.5 39.5 60.5c9.33499 23 14.002 47.5 14 73.5c0 26 -5.16699 50.5 -15.5 73.5s-24.167 43 -41.5 60
s-37.667 30.333 -61 40s-48 14.167 -74 13.5c-26 0 -50.5 -5.16699 -73.5 -15.5s-43 -24.167 -60 -41.5s-30.167 -37.667 -39.5 -61s-14 -48 -14 -74c0.667 -26 6 -50.333 16 -73s23.667 -42.5 41 -59.5s37.667 -30.3334 61 -40c23.333 -9.6667 48 -14.5 74 -14.5zM232 209
c13.333 0 22.667 6.66701 28 20l29 -14c-3.33301 -6 -7.16699 -11.167 -11.5 -15.5c-4.33301 -4.334 -9.16699 -8.16701 -14.5 -11.5c-11.334 -6.66701 -23 -10 -35 -10c-19.333 0 -36 6.33299 -50 19c-12 12.667 -18 30.333 -18 53c0 22 6.33299 39.333 19 52
c12 12.667 28 19 48 19c28.667 0 49 -11 61 -33l-31 -16c-3.33299 7.33401 -7.33299 12.001 -12 14c-5.334 3.33701 -9.66701 5.004 -13 5c-20.667 0 -31 -13.667 -31 -41c0 -11.333 2.66701 -21.333 8 -30c5.33299 -7.33299 13 -11 23 -11zM365 209
c12.667 0 22 6.66701 28 20l29 -14c-6.668 -11.333 -15.334 -20.333 -26 -27c-12 -6.66701 -23.667 -10 -35 -10c-19.333 0 -36 6.33299 -50 19c-12 12.667 -18 30.333 -18 53c0 22 6.33301 39.333 19 52c12 12.667 28 19 48 19c28.667 0 49 -11 61 -33l-31 -16
c-3.33301 7.33401 -7.33301 12.001 -12 14c-5.33301 3.33701 -9.66699 5.004 -13 5c-20.667 0 -31 -13.667 -31 -41c0.00201416 -12.667 2.66901 -22.667 8 -30c5.33499 -7.33299 13.001 -11 23 -11z" />
    <glyph glyph-name="plus" unicode="+" 
d="M437.934 -53.9111h-274.868v292.599h-106.399l443.333 452.201l159.6 -162.784v82.984h124.133v-209.617l159.6 -162.784h-106.399v-292.599h-274.868v239.4h-124.132v-239.4z" />
    <glyph glyph-name="comma" unicode="," 
d="M751.333 349.889h46.078v-460.778h-594.822v460.778h46.078v125.667c0 138.585 112.748 251.333 251.333 251.333c138.585 0 251.333 -112.748 251.333 -251.333v-125.667zM315.688 475.556v-125.667h368.624v125.667c0 101.631 -82.681 184.311 -184.312 184.311
c-101.631 0 -184.312 -82.68 -184.312 -184.311z" />
    <glyph glyph-name="hyphen" unicode="-" horiz-adv-x="826" 
d="M310 617h204c66 0 121 -55 121 -121v-102c0 -66 -55 -121 -121 -121h-70c-12 -54 -92 -117 -161 -117h-3c23 19 32 69 32 98c0 9 0 15 -2 19c-66 0 -120 55 -120 121v102c0 66 54 121 120 121z" />
    <glyph glyph-name="period" unicode="." horiz-adv-x="826" 
d="M505.4 585.3h-204c-66 0 -121 -55 -121 -121v-102c0 -66 55 -121 121 -121h70c12 -54 92 -117 161 -117h3c-23 19 -32 69 -32 98c0 9 0 15 2 19c66 0 120 55 120 121v102c0 66 -54 121 -120 121z" />
    <glyph glyph-name="slash" unicode="/" horiz-adv-x="1024" 
d="M217 611h104v-105h-104v105zM360 611h104v-105h-104v105zM503 611h104v-105h-104v105zM217 463h104v-105h-104v105zM360 463h104v-105h-104v105zM503 463h104v-105h-104v105zM217 316h104v-105h-104v105zM360 316h104v-105h-104v105zM503 316h104v-105h-104v105z" />
    <glyph glyph-name="bracketright" unicode="]" 
d="M52.7227 640.928h740.055v-50.454h-83.895h-10.524h-595.173v-470.95h537.924l-11.384 -50.4537h-509.723c-37.1495 0 -67.2803 30.4746 -67.2803 68.0697v503.788zM970.572 359.352c0 -15.891 -9.64203 -29.501 -23.41 -35.295
c6.815 -6.92599 11.033 -16.42 11.033 -26.906c0 -21.064 -16.976 -38.132 -38.012 -38.318c1.81702 -4.45001 2.80902 -9.29901 2.80902 -14.389c0 -21.166 -17.152 -38.354 -38.337 -38.354c-5.052 0 -9.86401 1.02901 -14.286 2.79001
c-0.166992 -16.827 -11.116 -31.04 -26.294 -36.046l61.478 -276.755l-67.142 43.2218l-37.827 -70.2288l-30.678 130.928l-23.317 -103.939l-37.095 65.6206l-70.424 -41.4785l56.657 252.612c-15.177 5.006 -26.118 19.238 -26.275 36.038
c-4.43103 -1.771 -9.25305 -2.782 -14.306 -2.782c-21.184 0 -38.345 17.18 -38.345 38.365c0 5.08899 1.01099 9.93799 2.79999 14.379c-21.008 0.175995 -37.994 17.253 -37.994 38.318c0 10.486 4.21899 19.979 11.024 26.895
c-13.731 5.823 -23.373 19.414 -23.391 35.296v0.0279846v0.0370178c0.0180054 15.863 9.66003 29.473 23.391 35.296c-6.815 6.91602 -11.024 16.4 -11.024 26.895c0 21.065 16.986 38.133 37.994 38.309c-1.81702 4.44998 -2.80902 9.30798 -2.80902 14.389
c0 21.185 17.17 38.336 38.336 38.336c5.07098 0 9.88403 -1.00101 14.306 -2.772c0.184998 21.037 17.262 38.031 38.318 38.031c10.448 0 19.924 -4.21899 26.85 -10.996c5.82202 13.759 19.441 23.373 35.304 23.373s29.464 -9.62402 35.295 -23.373
c6.94501 6.78699 16.392 10.996 26.84 10.996c21.083 0 38.143 -17.004 38.318 -38.031c4.45099 1.78 9.23499 2.772 14.306 2.772c21.185 0 38.336 -17.151 38.336 -38.336c0 -5.09003 -1.01099 -9.93903 -2.80896 -14.389c21.027 -0.175995 38.021 -17.244 38.021 -38.318
c0 -10.486 -4.21802 -19.979 -11.032 -26.905c13.749 -5.82199 23.391 -19.433 23.391 -35.314zM769.943 234.663c68.838 0 124.688 55.814 124.688 124.707c0 68.858 -55.84 124.68 -124.688 124.68c-68.857 0 -124.707 -55.831 -124.707 -124.68
c0 -68.885 55.85 -124.707 124.707 -124.707z" />
    <glyph glyph-name="asciicircum" unicode="^" 
d="M587.401 490.549c28.01 0 50.714 -22.696 50.723 -50.715v-237.879c0 -28.018 -22.713 -50.731 -50.723 -50.731h-0.276978v-168.493c0 -28.0185 -22.0891 -50.7314 -49.31 -50.7314h-75.611c-27.247 0 -49.318 22.7217 -49.318 50.7314v168.493h-0.286011
c-28.01 0 -50.723 22.721 -50.723 50.731v237.879c0 28.019 22.713 50.715 50.723 50.715h174.802zM417.21 589.696c0 55.194 27.597 82.79 82.79 82.79s82.79 -27.596 82.79 -82.79c0 -55.192 -27.597 -82.789 -82.79 -82.789s-82.79 27.597 -82.79 82.789z
M889.987 470.774c24.013 0 43.467 -19.462 43.467 -43.458v-203.844c0 -24.023 -19.454 -43.485 -43.475 -43.485h-0.234985v-144.382c0 -24.0137 -18.925 -43.4668 -42.253 -43.4668h-64.802c-23.328 0 -42.244 19.4531 -42.244 43.4668v144.375h-0.242004
c-24.022 0 -43.467 19.461 -43.467 43.484v203.845c0 24.004 19.445 43.466 43.467 43.466h149.784zM744.147 555.723c0 47.298 23.65 70.947 70.948 70.947c47.299 0 70.9481 -23.649 70.9481 -70.947c0 -47.299 -23.649 -70.949 -70.9481 -70.949
c-47.298 0 -70.948 23.65 -70.948 70.949zM259.797 470.774c23.996 0 43.459 -19.462 43.467 -43.458v-203.844c0 -24.023 -19.462 -43.485 -43.467 -43.485h-0.242004v-144.375c0 -24.0127 -18.916 -43.4668 -42.253 -43.4668h-64.793
c-23.32 0 -42.253 19.4541 -42.253 43.4668v144.375h-0.242996c-24.0042 0 -43.4671 19.462 -43.4671 43.485v203.844c0 23.996 19.4629 43.458 43.4671 43.458h149.784zM113.966 555.723c0 47.292 23.646 70.938 70.939 70.938s70.939 -23.646 70.939 -70.938
c0 -47.293 -23.646 -70.94 -70.939 -70.94s-70.939 23.647 -70.939 70.94z" />
    <glyph glyph-name="underscore" unicode="_" 
d="M556.199 -104.649h-165.552v400.735h-82.734v138.087h82.734v82.91c0 112.657 46.695 179.645 179.395 179.645h110.485v-138.116h-69.057c-51.666 0 -55.068 -19.296 -55.068 -55.316l-0.201965 -69.123h125.105l-14.638 -138.087h-110.467z" />
    <glyph glyph-name="grave" unicode="`" 
d="M743.493 636.736h46.669v-142.443h144.473v-46.669h-144.473v-146.502h-46.669v146.502h-144.472v46.669h144.472v142.443zM565.743 635.519l-28.407 -16.436c-18.806 -10.935 -37.851 -16.436 -57.221 -16.436h-29.219l25.769 -29.016
c41.754 -47.435 50.367 -107.166 23.335 -161.517c-5.586 -11.231 -27.4 -36.739 -48.496 -56.612c-54.315 -51.165 -53.537 -64.136 7.914 -115.861c53.934 -45.4 75.706 -73.617 83.802 -108.558c16.565 -71.4922 -35.976 -151.645 -120.935 -184.243
c-43.205 -16.5771 -155.557 -23.7773 -199.258 -12.7832c-92.532 23.2793 -141.671 94.7813 -114.644 166.589c9.294 24.695 49.118 65.362 79.743 81.165c28.549 14.73 99.609 31.081 135.545 31.248h24.349l-13.798 26.379c-10.402 19.955 -12.522 32.415 -9.33398 52.35
c3.87201 24.211 3.04999 25.983 -9.13101 22.117c-21.601 -6.85501 -81.754 8.957 -109.166 28.814c-33.232 24.073 -59.919 76.829 -59.25 116.877c1.092 65.298 37.311 119.156 101.05 150.559l44.234 21.711l136.56 1.82599zM313.728 602.241
c-1.81799 0.0199585 -3.67599 -0.30304 -5.479 -0.405029c-28.838 -1.61603 -55.308 -18.425 -68.381 -49.713c-23.19 -55.504 7.312 -161.914 55.801 -194.592c60.306 -40.639 136.965 3.47699 136.965 78.73c0 32.733 -22.23 98.257 -42.003 124.181
c-20.953 27.472 -49.632 41.315 -76.903 41.597v0.202026zM344.165 187.086c-42.334 -1.791 -97.447 -16.783 -120.326 -33.074c-24.912 -17.739 -37.944 -44.527 -37.944 -77.7151c0 -47.0586 34.09 -85.1709 92.527 -103.078
c35.325 -10.8252 128.838 -4.8799 153.806 9.7392c30.312 17.749 46.699 42.2227 50.322 75.2803c3.83002 34.9453 -11.491 60.0987 -61.483 100.847c-30.761 25.074 -38.025 28.001 -68.583 28.001c-2.69501 0 -5.49701 0.119995 -8.319 0z" />
    <glyph glyph-name="h" unicode="h" 
d="M658.695 48.8477c19.284 13.5459 46.023 8.8662 59.578 -10.5352c13.605 -19.333 8.86798 -46.0127 -10.465 -59.5586c-60.667 -42.501 -131.369 -64.6885 -203.884 -64.6885c-11.83 0 -23.708 0.785202 -35.567 1.9522c-2.43201 0.225601 -4.75699 0.667 -7.16 0.951202
c-6.60098 0.785095 -13.232 1.4521 -19.853 2.6289c-1.96201 0.324196 -3.82498 0.882797 -5.77798 1.2753c-4.737 0.941498 -9.35699 2.1182 -14.006 3.1778c-7.02301 1.6777 -13.998 3.3447 -20.785 5.4053c-3.72699 1.1084 -7.40601 2.3828 -11.084 3.6777
c-7.78799 2.5508 -15.488 5.2871 -23.07 8.4062c-2.19699 0.951199 -4.33499 2.001 -6.513 2.9522c-8.85699 3.8349 -17.499 7.9746 -25.973 12.5361c-0.805023 0.391598 -1.56 0.892597 -2.36401 1.3438c-29.338 16.0468 -56.244 36.1445 -80.088 60.0586
c-0.697006 0.667 -1.354 1.3925 -2.011 2.0595c-7.082 7.2393 -13.987 14.7032 -20.51 22.5703c-1.726 2.0499 -3.237 4.2276 -4.90401 6.3457c-4.39499 5.5713 -8.955 10.9766 -13.085 16.8809c-0.559006 0.785202 -0.893005 1.6084 -1.39301 2.4522
c-39.735 57.4987 -63.129 127.032 -63.129 202.079h-71.319l114.095 171.143l114.114 -171.123h-71.318c0 -63.855 22.343 -122.521 59.421 -168.866c1.08798 -1.344 2.09799 -2.7865 3.19699 -4.0716c5.13 -6.169 10.535 -12.1426 16.155 -17.8223
c0.303986 -0.2939 0.588989 -0.627899 0.893005 -0.951103c18.185 -18.1661 38.94 -33.7129 61.647 -46.1309c0.304993 -0.166 0.588989 -0.3428 0.892975 -0.5c6.70901 -3.6387 13.614 -6.915 20.637 -9.9854c1.36398 -0.618101 2.668 -1.2255 4.04099 -1.7851
c5.99402 -2.5108 12.144 -4.6885 18.363 -6.7481c2.54999 -0.833899 5.061 -1.7851 7.66 -2.5605c5.36499 -1.61817 10.829 -2.90333 16.342 -4.18848c3.40302 -0.82325 6.76703 -1.667 10.22 -2.33399c5.66 -1.11816 11.398 -1.90332 17.136 -2.61914
c3.00101 -0.39258 6.013 -0.89258 8.99399 -1.16699c7.327 -0.666994 14.743 -1.00098 22.178 -1.1084c56.41 -0.804688 111.516 15.8115 158.695 48.8477zM859.832 270.818h71.261l-114.066 -171.152l-114.164 171.152h71.368
c-0.0480347 65.072 -23.177 124.845 -61.559 171.623c-0.176025 0.186981 -0.333008 0.431976 -0.51001 0.627991c-27.288 33.045 -62.285 59.451 -102.177 76.616c-0.666992 0.263977 -1.33398 0.608032 -2.00098 0.882019c-6.63 2.78699 -13.428 5.21899 -20.343 7.47498
c-1.883 0.617981 -3.78699 1.33398 -5.66901 1.89301c-6.02301 1.83502 -12.202 3.33502 -18.392 4.73798c-2.72601 0.607056 -5.46399 1.33405 -8.23901 1.89203c-6.23798 1.22699 -12.644 2.12 -19.108 2.89398c-2.40295 0.314026 -4.79596 0.677002 -7.18896 0.921997
c-7.83801 0.756042 -15.763 1.14703 -23.786 1.19702c-55.988 0.528992 -110.623 -16.097 -157.42 -48.857c-19.362 -13.566 -46.052 -8.858 -59.578 10.495c-13.575 19.352 -8.87701 46.052 10.485 59.588c60.588 42.462 131.182 64.305 203.579 64.354
c0.304993 0.039978 0.588989 0.117981 0.923004 0.117981c1.69598 0 3.345 -0.224976 5.061 -0.244995c9.41696 -0.147034 18.833 -0.528992 28.318 -1.422c3.89404 -0.392029 7.74902 -1.01001 11.643 -1.51001c5.68903 -0.716003 11.319 -1.138 16.949 -2.12
c2.04999 -0.380981 4.06097 -1.00903 6.11096 -1.39203c4.237 -0.833984 8.35699 -1.90295 12.535 -2.84497c7.58197 -1.77502 15.047 -3.56 22.462 -5.78699c3.07001 -0.94104 6.07202 -2.03003 9.14203 -3.06c8.474 -2.79504 16.881 -5.80701 25.12 -9.20105
c1.39301 -0.617981 2.79596 -1.28497 4.237 -1.89294c51.477 -22.187 96.94 -56.1151 133.105 -100.009c0.666992 -0.774994 1.22601 -1.61899 1.83398 -2.39398c5.35504 -6.582 10.701 -13.124 15.605 -20.118c0.666992 -0.94101 1.06 -1.94101 1.61896 -2.89301
c39.559 -57.381 62.785 -126.807 62.844 -201.569z" />
    <glyph glyph-name="i" unicode="i" 
d="M430.438 242.918l-0.539978 289.822h-105.158l175.26 175.26l157.716 -175.26h-105.148l0.570984 -290.235c-19.531 6.33099 -40.309 9.82899 -61.911 9.82899c-21.179 0 -41.609 -3.31799 -60.79 -9.416zM690.319 515.218h247.834l-9.67004 -232.732l-75.206 73.494
l-192.085 -197.326c-22.426 35.204 -55.358 63.01 -94.462 78.863l198.795 204.207zM415.736 237.517c-39.103 -15.853 -72.035 -43.66 -94.451 -78.863l-192.085 197.326l-75.2059 -73.494l-9.6709 232.732h247.823l-75.206 -73.494zM351.701 50.7803
c0 93.0177 46.509 139.527 139.528 139.527c93.017 0 139.526 -46.509 139.526 -139.527c0 -93.0183 -46.509 -139.527 -139.526 -139.527c-93.019 0 -139.528 46.5091 -139.528 139.527z" />
    <glyph glyph-name="j" unicode="j" 
d="M591.931 704.048l193.066 -187.855h-193.066v187.855zM815.254 -120.038l-631.709 0.00900269v849.931h390.374v-234.82l241.344 -0.00900269zM499.396 652.092h-233.561v-23.471l233.561 -0.00799561v23.479zM499.387 585.317h-233.552v-23.478l233.552 0.0090332
v23.469zM499.404 518.543l-233.56 0.00897217v-23.479h233.552zM479.877 -28.3467c4.36798 -0.2724 7.332 -0.331999 11.769 -0.331999c113.85 0 206.479 92.6289 206.479 206.48c0 81.429 -48.754 152.667 -117.394 186.261l-80.731 -188.408zM289.254 218.779
c-2.67401 -13.25 -4.07901 -26.953 -4.07901 -40.978c0 -104.415 77.027 -190.844 177.763 -204.479l19.485 197.981zM293.257 235.326l172.279 -42.342l-121.873 128.686c-23.53 -24.202 -41.192 -53.012 -50.67 -86.344h0.263977zM488.912 193.078l76.167 177.721
c-22.831 8.71198 -47.587 13.489 -73.433 13.489c-51.846 0 -99.297 -19.203 -135.601 -50.892l0.0339966 -0.0419922l132.833 -140.276l0.0680237 0.102997z" />
    <glyph glyph-name="k" unicode="k" horiz-adv-x="1024" 
d="M411 220c-17 0 -33 -7 -44 -18s-18 -27 -18 -44s7 -32 18 -43c11 -12 27 -19 44 -19s32 7 43 19c12 11 18 26 18 43s-6 33 -18 44c-11 11 -26 18 -43 18zM477 462c0 37 -8 65 -20 84c-13 19 -29 28 -45 28s-32 -9 -44 -28c-13 -19 -21 -47 -21 -84c8 -66 19 -116 30 -149
c11 -34 23 -50 35 -50s24 16 35 50c11 33 21 83 30 149zM446 748l368 -636c4 -7 6 -15 6 -22c0 -20 -16 -37 -41 -37h-734c-25 0 -41 16 -41 36c0 7 2 15 6 23l367 636c8 15 21 22 35 22c12 0 25 -7 34 -22z" />
    <glyph glyph-name="l" unicode="l" horiz-adv-x="350" 
d="M175 450c17.333 -0.00299072 33.5 -3.33701 48.5 -10c15 -6.66699 28.167 -15.667 39.5 -27c11.333 -11.333 20.333 -24.5 27 -39.5s10 -31.167 10 -48.5c0 -30 -6.66699 -61 -20 -93s-27.667 -61.667 -43 -89c-18 -32 -38.667 -63 -62 -93c-24 30 -45 61 -63 93
c-15.3333 27.333 -29.5 57 -42.5 89s-19.5 63 -19.5 93c0 17.334 3.3333 33.501 10 48.5c6.6667 15 15.6667 28.167 27 39.5s24.5 20.333 39.5 27s31.167 10 48.5 10zM175 256c18.667 0 34.5 6.5 47.5 19.5s19.5 28.833 19.5 47.5c0 19.334 -6.5 35.501 -19.5 48.5
c-13 13 -28.833 19.5 -47.5 19.5c-19.333 0 -35.5 -6.5 -48.5 -19.5s-19.5 -29.167 -19.5 -48.5c0 -18.667 6.5 -34.5 19.5 -47.5s29.167 -19.5 48.5 -19.5z" />
    <glyph glyph-name="v" unicode="v" horiz-adv-x="787" 
d="M0 271v117c-1.78814e-07 4.66699 2.33333 7.66699 7 9c13.3333 4 27.3333 7 42 9c14.6667 1.99899 29 3.66599 43 5c2.6667 -0.0039978 5.3333 0.162994 8 0.5c2.667 0.333008 5.667 0.833008 9 1.5l11 29c4 9.33301 8.66701 19 14 29l-28 39
c-10 13.333 -20.6667 26.333 -32 39c-4 3.33301 -4 7.66699 0 13c13.3333 16 27.333 31.333 42 46c14.667 14.667 30 28.667 46 42c3.33299 3.33301 7.66701 3.33301 13 0c7.33299 -8.005 15.167 -15.171 23.5 -21.5c8.33299 -6.33899 16.5 -12.173 24.5 -17.5
c5.33299 -3.341 10.333 -7.00702 15 -11c4.66701 -3.99902 9.66701 -7.66602 15 -11c18 10 37.333 18 58 24c2 20 4 38.167 6 54.5c2.004 16.333 4.67001 32.167 8 47.5c1.33701 6 4.67001 9 10 9h117c6 0 9 -3 9 -9c2.66699 -13.336 5 -26.67 7 -40l6 -41l3 -21
c10.001 -3.33301 19.667 -6.83301 29 -10.5s18.667 -8.16699 28 -13.5l14 10l12 10l28 19c8.66901 6.67102 17.336 14.005 26 22c4 4 8 3.66699 12 -1l12 -12c3.33301 -3.34497 7 -6.67902 11 -10l32 -31l31 -34c2.66699 -4.66699 2.66699 -9 0 -13
c-9.336 -10.667 -18.669 -22.333 -28 -35l-31 -42c10.003 -20 18.336 -40.334 25 -61c8.66998 -2 17.336 -3.5 26 -4.5c8.66699 -1 17.667 -2.16699 27 -3.5c7.33301 -1.33301 15.333 -2.66699 24 -4l25 -4c4.66498 -1.33301 6.99799 -4.33301 7 -9v-117
c0 -4.668 -2.33301 -8.00101 -7 -10c-12.667 -3.33299 -26 -5.83299 -40 -7.5s-28 -3.16701 -42 -4.5c-3.341 -0.667007 -6.67401 -1.16701 -10 -1.5c-3.34399 -0.332993 -6.677 -0.832993 -10 -1.5c-3.33899 -10 -7.00598 -19.667 -11 -29l-13 -29
c8 -12 17.167 -24.833 27.5 -38.5s21.167 -26.833 32.5 -39.5c3.33301 -3.333 3.33301 -7.667 0 -13c-26.667 -32.6667 -56.333 -62 -89 -88c-3.33301 -3.33333 -7.33301 -3.33333 -12 0c-8 7.3333 -16 14.1667 -24 20.5c-8 6.3333 -16.333 12.5 -25 18.5
c-4.66699 3.3333 -9.5 7 -14.5 11c-5 4.0001 -9.83301 7.6667 -14.5 11c-18.667 -10 -38 -18 -58 -24c-1.33301 -16.6667 -3.33301 -33.6667 -6 -51c-2.66599 -17.3333 -6 -34.3333 -10 -51c-1.33301 -6 -4.33301 -9 -9 -9h-117c-5.33301 0 -8.66699 3 -10 9
c-2 13.3333 -3.83301 26.6667 -5.5 40c-1.66501 13.3333 -3.49799 27 -5.5 41l-3 21l-29 10c-10 3.3333 -19.333 8 -28 14l-14 -10l-13 -10c-18 -12.6667 -35.667 -26.3333 -53 -41c-4.66701 -4 -9 -3.66667 -13 1l-11 11l-12 11l-32 31c-10 10.6667 -20 22 -30 34
c-3.3333 4.6667 -3.3333 9 0 13c10.6667 12.667 20.6667 25.667 30 39l29 38c-10.667 20 -19.333 40.333 -26 61c-8 2 -16.3334 3.5 -25 4.5c-8.6667 1 -17.3334 2.16701 -26 3.5c-8.6667 1.33299 -17.3333 2.5 -26 3.5c-8.6667 1 -17 2.5 -25 4.5
c-4.66667 1.33301 -7 4.33301 -7 9zM275 329c0.00100708 -16.667 3.168 -32.167 9.5 -46.5c6.33301 -14.333 14.833 -26.833 25.5 -37.5s23.167 -19.167 37.5 -25.5c14.334 -6.334 29.667 -9.5 46 -9.5c16.334 0 31.667 3.16701 46 9.5s26.833 14.833 37.5 25.5
s19.167 23.167 25.5 37.5c6.33499 14.333 9.50201 29.833 9.5 46.5c0 16 -3.16699 31.167 -9.5 45.5s-14.833 26.833 -25.5 37.5s-23.167 19.167 -37.5 25.5c-14.333 6.33499 -29.667 9.50201 -46 9.5c-16.333 0 -31.667 -3.16699 -46 -9.5s-26.833 -14.833 -37.5 -25.5
s-19.167 -23.167 -25.5 -37.5s-9.5 -29.5 -9.5 -45.5z" />
    <glyph glyph-name="m" unicode="m" horiz-adv-x="550" 
d="M487 383c4.66699 2 8.33301 1.83301 11 -0.5s2.66699 -5.5 0 -9.5c-29.333 -42.667 -54 -75.167 -74 -97.5c-20 -22.333 -37.167 -38 -51.5 -47c-14.333 -9.00101 -26.5 -12.667 -36.5 -11s-19.167 5.33299 -27.5 11s-16.833 12 -25.5 19s-19 11.5 -31 13.5
s-26.333 -0.166992 -43 -6.5c-16.667 -6.33299 -37.333 -19.833 -62 -40.5l45 -177h-51l-91 361l46 16c27.333 20 50.167 33.5 68.5 40.5s33.667 9.33301 46 7s22.667 -7.83301 31 -16.5s16.833 -18.167 25.5 -28.5s18.333 -20.667 29 -31s24.167 -18 40.5 -23
c16.333 -4.99899 36.5 -6.332 60.5 -4c24 2.33401 54 10.501 90 24.5z" />
    <glyph glyph-name="n" unicode="n" 
d="M576.643 125.533c0 -5.52399 -1.198 -10.352 -3.62201 -14.485c-2.41498 -4.144 -6.73199 -7.611 -12.961 -10.373c-6.20001 -2.7619 -14.148 -4.8391 -23.795 -6.1994c-9.68799 -1.3916 -21.769 -2.0772 -36.255 -2.0772c-14.506 0 -26.587 0.6856 -36.254 2.0772
c-9.668 1.3711 -17.596 3.4473 -23.825 6.1994c-6.20099 2.76199 -10.537 6.21999 -12.931 10.373c-2.435 4.133 -3.63199 8.96101 -3.63199 14.485l-17.605 581.804c-0.686005 8.28601 0.337006 15.528 3.10901 21.738c2.763 6.20898 7.76498 11.396 15.018 15.539
c7.25299 4.14301 16.91 7.06897 28.991 8.79797c12.071 1.71899 27.774 2.58801 47.119 2.58801c18.629 0 33.994 -1.04303 46.096 -3.09998c12.071 -2.07605 21.738 -5.18604 28.991 -9.33002c7.23199 -4.14203 12.235 -9.15503 15.017 -15.016
c2.74298 -5.87201 4.133 -12.942 4.133 -21.228zM597.859 -46.5127c0 -47.0264 -43.896 -85.0913 -97.941 -85.0913c-12.858 0 -25.043 2.13701 -36.306 6.04501c-15.703 -8.592 -29.676 -14.455 -48.387 -18.128c-5.58499 -1.145 -7.80499 -1.033 -8.29602 -0.335999
c-0.552979 0.817993 1.27802 2.414 2.90503 3.72299c18.117 14.138 21.145 21.544 25.523 29.841c-20.48 15.5186 -33.4 38.4336 -33.4 63.957c0 47.0264 43.824 85.1534 97.961 85.1534c54.045 0 97.941 -38.1377 97.941 -85.1641z" />
    <glyph glyph-name="q" unicode="q" horiz-adv-x="910" 
d="M455 740l119 -336h321l-262 -198l94 -346l-272 208l-272 -208l94 346l-262 198h321z" />
    <glyph glyph-name="r" unicode="r" horiz-adv-x="910" 
d="M895 404l-262 -198l94 -346l-272 208l-272 -208l94 346l-262 198h321l119 336l119 -336h321zM455 166l151 -125l-62 178l142 115l-176 -5l-55 202l-55 -202l-176 5l142 -115l-62 -178z" />
    <glyph glyph-name="s" unicode="s" horiz-adv-x="880" 
d="M795 591c46.666 -43.334 70 -95.334 70 -156c0 -60.667 -23.333 -112.667 -70 -156l-355 -330l-355 330c-46.6667 43.333 -70 95.333 -70 156s23.3333 112.667 70 156c41.333 38.668 91.167 58.001 149.5 58c58.333 0 108.167 -19.333 149.5 -58l56 -52l56 52
c41.333 38.668 91.167 58.001 149.5 58c58.333 0 108.167 -19.333 149.5 -58zM743 330c28 25.333 42 60.333 42 105s-12.333 78 -37 100c-28 26 -62 39 -102 39c-32.667 0 -66.667 -16.333 -102 -49l-104 -91l-104 91c-35.333 32.668 -69.333 49.001 -102 49
c-40 0 -74 -13 -102 -39c-24.667 -22 -37 -55.334 -37 -100c0 -44.667 14 -79.667 42 -105l303 -286z" />
    <glyph glyph-name="t" unicode="t" horiz-adv-x="890" 
d="M804 591c46.668 -43.334 70.001 -95.334 70 -156c0 -60.667 -23.333 -112.667 -70 -156l-359 -330l-359 330c-46.6667 43.333 -70 95.333 -70 156s23.3333 112.667 70 156c42 38.668 92.333 58.001 151 58c58.667 0 109 -19.333 151 -58l57 -52l57 52
c42 38.668 92.334 58.001 151 58c58.667 0 109 -19.333 151 -58z" />
    <glyph glyph-name="u" unicode="u" horiz-adv-x="930" 
d="M889 555c9.33301 3.33301 16.667 2.83301 22 -1.5c5.33301 -4.336 5.33301 -10.503 0 -18.5c-50 -72.667 -94.5 -132 -133.5 -178c-38.999 -46 -71.666 -78.5 -98 -97.5c-26.335 -19 -49.668 -30.5 -70 -34.5c-20.333 -4 -38.333 -1.666 -54 7
c-15.667 8.66701 -30.5 19 -44.5 31s-30.167 22.833 -48.5 32.5s-38.167 15.5 -59.5 17.5c-21.333 1.99899 -48.667 -4.83499 -82 -20.5c-33.333 -15.667 -70.667 -40.833 -112 -75.5l90 -353h-101l-183 720l93 34c47.333 34.668 88.667 59.834 124 75.5
c35.333 15.667 64.5 22.667 87.5 21s43.167 -8.33301 60.5 -20s33.333 -26.5 48 -44.5l46 -56c15.334 -19.335 34.667 -36.668 58 -52c23.333 -15.335 49.833 -26.668 79.5 -34c29.667 -7.33301 68.167 -7.33301 115.5 0s101.333 23 162 47z" />
    <glyph glyph-name="w" unicode="w" horiz-adv-x="894" 
d="M5.5 -41c-9.66667 16.6667 -7.5 36.3333 6.5 59l387 671c12.667 23.333 28.667 35 48 35c18.667 -0.00201416 35 -11.669 49 -35l387 -671c13.333 -22.6667 15.333 -42.3333 6 -59c-9.33301 -16.6667 -27.333 -25 -54 -25h-775c-26.6667 0 -44.8333 8.3333 -54.5 25z
M168 53h558l-279 483zM389 391c0 4 1.5 7.5 4.5 10.5c3.00201 3 6.168 4.5 9.5 4.5h89c3.33301 0 6.33301 -1.5 9 -4.5s4 -6.5 4 -10.5l-7 -192c0 -8 -4.66699 -12 -14 -12h-73c-9.33301 0 -14 4 -14 12zM392 133c0 9.33299 4.33301 14 13 14h82
c9.33301 0 14 -4.66701 14 -14l1 -51c0 -9.3333 -4.66699 -14 -14 -14h-82c-8.66699 0 -13.001 4.6667 -13 14z" />
    <glyph glyph-name="x" unicode="x" 
d="M880.297 675.998c48.9512 -48.9414 60.8975 -128.023 60.8975 -128.033l-551.815 -547.965l-329.087 -144.112l144.068 329.141l547.93 551.903s79.0381 -11.9648 128.007 -60.9336zM191.955 -71.4082l187.037 81.9189s-9.47168 36.0615 -14.3174 47.4883
c-5.08398 12.0264 -14.8105 23.3916 -24.7568 35.4092l-43.3652 43.2061c-11.6211 9.47168 -22.7402 18.4844 -34.2461 23.7354c-31.7354 14.626 -47.4619 14.2119 -47.4619 14.2119l-81.8848 -186.932c39.6211 -19.3828 39.6211 -19.3828 58.9951 -59.0381z" />
    <glyph glyph-name="y" unicode="y" horiz-adv-x="789" 
d="M0 330c0 50.667 9.66667 100.167 29 148.5c19.3333 48.333 48.3333 91.833 87 130.5c38.667 38.666 82.167 67.5 130.5 86.5c48.333 19 97.833 28.5 148.5 28.5s100.167 -9.5 148.5 -28.5s91.833 -47.833 130.5 -86.5s67.5 -82.167 86.5 -130.5s28.5 -97.833 28.5 -148.5
s-9.5 -100.167 -28.5 -148.5s-47.833 -91.8334 -86.5 -130.5c-38.667 -38.6667 -82.167 -67.6667 -130.5 -87c-48.333 -19.3333 -97.833 -29 -148.5 -29s-100.167 9.6667 -148.5 29c-48.333 19.3333 -91.833 48.3333 -130.5 87c-38.6667 38.6667 -67.6667 82.167 -87 130.5
c-19.3333 48.333 -29 97.833 -29 148.5zM195 187l58 -57c3.33401 -3.333 7.168 -5 11.5 -5c4.33499 0 8.16901 1.667 11.5 5l120 120l108 -109c3.33301 -4 7.16699 -6 11.5 -6s8.16699 2 11.5 6l56 55c8 8 8 15.667 0 23l-109 109l121 121
c7.33301 8.00101 7.33301 15.668 0 23l-58 58c-8.00201 8 -15.669 8 -23 0l-120 -121l-110 109c-7.33301 8 -15 8 -23 0l-55 -55c-3.334 -4 -5.00101 -8 -5 -12c0 -4 1.66701 -8 5 -12l109 -108l-120 -121c-7.33299 -7.334 -7.33299 -15 0 -23z" />
    <glyph glyph-name="z" unicode="z" horiz-adv-x="789" 
d="M0 329c-4.17233e-07 54.667 10.3333 105.833 31 153.5c20.6667 47.667 48.8333 89.5 84.5 125.5c35.667 36 77.5 64.333 125.5 85c48 20.668 99.333 31.001 154 31c54.667 0 105.833 -10.333 153.5 -31s89.334 -49 125 -85c35.668 -36 63.835 -77.833 84.5 -125.5
c20.67 -47.667 31.003 -98.833 31 -153.5c0 -54.667 -10.333 -105.833 -31 -153.5c-20.667 -47.667 -48.833 -89.5 -84.5 -125.5s-77.333 -64.3333 -125 -85c-47.667 -20.6667 -98.834 -31 -153.5 -31c-54.667 0 -106 10.3333 -154 31c-48 20.6667 -89.833 49 -125.5 85
c-35.6667 36 -63.8333 77.833 -84.5 125.5c-20.6667 47.667 -31 98.833 -31 153.5zM333 579l6 -365c1.336 -10 6.66901 -15 16 -15h80c9.33499 0 14.002 5 14 15l8 365c0.666992 4 -0.666992 7.66699 -4 11c-2.668 2.67401 -6.33499 4.008 -11 4h-95
c-4.668 0 -8.00101 -1.33301 -10 -4c-2.67001 -2.66699 -4.004 -6.33301 -4 -11zM336 66c0 -10 5 -15 15 -15h89c3.33899 9.91821e-05 6.672 1.3334 10 4c3.33499 2.6667 5.00201 6.3334 5 11v86c0 4 -1.66699 7.5 -5 10.5s-6.66699 4.5 -10 4.5h-89c-10 0 -15 -5 -15 -15
v-86z" />
    <glyph glyph-name="braceleft" unicode="{" horiz-adv-x="789" 
d="M0 329c-4.17233e-07 54.667 10.3333 105.833 31 153.5c20.6667 47.667 48.8333 89.5 84.5 125.5c35.667 36 77.5 64.333 125.5 85c48 20.668 99.333 31.001 154 31c54.667 0 105.833 -10.333 153.5 -31s89.334 -49 125 -85c35.668 -36 63.835 -77.833 84.5 -125.5
c20.67 -47.667 31.003 -98.833 31 -153.5c0 -54.667 -10.333 -105.833 -31 -153.5c-20.667 -47.667 -48.833 -89.5 -84.5 -125.5s-77.333 -64.3333 -125 -85c-47.667 -20.6667 -98.834 -31 -153.5 -31c-54.667 0 -106 10.3333 -154 31c-48 20.6667 -89.833 49 -125.5 85
c-35.6667 36 -63.8333 77.833 -84.5 125.5c-20.6667 47.667 -31 98.833 -31 153.5zM167 290c0 -4.66699 1.66701 -8.66699 5 -12s7 -5 11 -5h155v-169c0 -5.3333 1.5 -9.5 4.5 -12.5s6.83301 -4.5 11.5 -4.5h82c3.99899 0 7.66599 1.5 11 4.5
c3.33801 3.0002 5.004 7.1668 5 12.5v169h154c4.67401 0.00201416 8.508 1.66901 11.5 5c3 3.33301 4.5 7.33301 4.5 12v78c0 4.00201 -1.5 7.668 -4.5 11c-3 3.336 -6.83301 5.00299 -11.5 5h-154v170c0 5.33301 -1.66699 9.5 -5 12.5s-7 4.5 -11 4.5h-82
c-4.668 0 -8.50101 -1.5 -11.5 -4.5c-3 -3.005 -4.5 -7.172 -4.5 -12.5v-170h-155c-4 0 -7.66701 -1.66699 -11 -5c-3.33501 -3.33301 -5.002 -7 -5 -11v-78z" />
    <glyph glyph-name="bar" unicode="|" horiz-adv-x="789" 
d="M0 329c-4.17233e-07 54.667 10.3333 105.833 31 153.5c20.6667 47.667 48.8333 89.5 84.5 125.5c35.667 36 77.5 64.333 125.5 85c48 20.668 99.333 31.001 154 31c54.667 0 105.833 -10.333 153.5 -31s89.334 -49 125 -85c35.668 -36 63.835 -77.833 84.5 -125.5
c20.67 -47.667 31.003 -98.833 31 -153.5c0 -54.667 -10.333 -105.833 -31 -153.5c-20.667 -47.667 -48.833 -89.5 -84.5 -125.5s-77.333 -64.3333 -125 -85c-47.667 -20.6667 -98.834 -31 -153.5 -31c-54.667 0 -106 10.3333 -154 31c-48 20.6667 -89.833 49 -125.5 85
c-35.6667 36 -63.8333 77.833 -84.5 125.5c-20.6667 47.667 -31 98.833 -31 153.5zM167 290c0 -4.66699 1.66701 -8.66699 5 -12s7 -5 11 -5h423c4.67401 0.00201416 8.508 1.66901 11.5 5c3 3.33301 4.5 7.33301 4.5 12v78c0 4.00201 -1.5 7.668 -4.5 11
c-3 3.336 -6.83301 5.00299 -11.5 5h-423c-4 0 -7.66701 -1.66699 -11 -5c-3.33501 -3.33301 -5.002 -7 -5 -11v-78z" />
    <glyph glyph-name="braceright" unicode="}" horiz-adv-x="413" 
d="M0.5 423.5c3 9 11.8333 14.833 26.5 17.5l251 35l111 228c6.66699 13.333 15 20 25 20v-667l-223 -118c-14.667 -6.6667 -25.833 -7.1667 -33.5 -1.5c-7.66701 5.6667 -9.83299 16.1667 -6.5 31.5l43 248l-181 177c-11.3333 10.667 -15.5 20.5 -12.5 29.5z" />
    <glyph glyph-name="asciitilde" unicode="~" horiz-adv-x="789" 
d="M0 329c-4.17233e-07 54.667 10.3333 105.833 31 153.5c20.6667 47.667 48.8333 89.5 84.5 125.5c35.667 36 77.5 64.333 125.5 85c48 20.668 99.333 31.001 154 31c54.667 0 105.833 -10.333 153.5 -31s89.334 -49 125 -85c35.668 -36 63.835 -77.833 84.5 -125.5
c20.67 -47.667 31.003 -98.833 31 -153.5c0 -54.667 -10.333 -105.833 -31 -153.5c-20.667 -47.667 -48.833 -89.5 -84.5 -125.5s-77.333 -64.3333 -125 -85c-47.667 -20.6667 -98.834 -31 -153.5 -31c-54.667 0 -106 10.3333 -154 31c-48 20.6667 -89.833 49 -125.5 85
c-35.6667 36 -63.8333 77.833 -84.5 125.5c-20.6667 47.667 -31 98.833 -31 153.5zM119 329c0 -38 7.167 -73.833 21.5 -107.5c14.333 -33.667 34 -63 59 -88s54.333 -44.6667 88 -59c33.667 -14.3333 69.5 -21.5 107.5 -21.5s73.833 7.1667 107.5 21.5
c33.668 14.3334 63.001 34 88 59c25.001 25 44.834 54.333 59.5 88c14.669 33.667 22.003 69.5 22 107.5c0 38 -7.33301 73.833 -22 107.5s-34.5 63.167 -59.5 88.5s-54.333 45.167 -88 59.5s-69.5 21.5 -107.5 21.5c-38 -0.00201416 -73.833 -7.16901 -107.5 -21.5
c-33.667 -14.335 -63 -34.168 -88 -59.5c-25 -25.333 -44.667 -54.833 -59 -88.5c-14.333 -33.667 -21.5 -69.5 -21.5 -107.5zM223 424.5c0 5.66699 1.66701 10.5 5 14.5l56 56c4.66699 4 9.66699 6 15 6s10 -2 14 -6l82 -82l82 82c4 4 8.83301 6 14.5 6s10.167 -2 13.5 -6
l56 -56c3.33301 -4.00201 5 -8.83499 5 -14.5c0.00299072 -5.66699 -1.66302 -10.167 -5 -13.5l-82 -82l82 -82c8.66699 -10 8.66699 -19.667 0 -29l-56 -55c-9.33301 -8.66701 -18.667 -8.66701 -28 0l-82 82l-82 -82c-4 -4 -8.66699 -6 -14 -6s-10.333 2 -15 6l-56 55
c-8 9.33299 -8 19 0 29l84 82l-84 82c-3.336 3.33301 -5.00301 7.83301 -5 13.5z" />
    <glyph glyph-name="exclamdown" unicode="&#xa1;" horiz-adv-x="990" 
d="M960 780c24.642 -70.667 21.975 -137 -8 -199c-30 -62 -73 -114.667 -129 -158l17 -25c10.684 -16.667 13.017 -34.334 7 -53l-49 -157c-5.336 -17.333 -16.669 -32.667 -34 -46l-465 -330c-27.333 -18.667 -48.667 -17 -64 5l-211 305
c-8 11.333 -10.8333 23.833 -8.5 37.5s9.1667 24.5 20.5 32.5l465 329c14.667 11.333 32.667 17 54 17l158 1c8 0 16.667 -2.5 26 -7.5s16.333 -10.833 21 -17.5l28 -41c15.333 12 29.667 24.5 43 37.5s27 29 41 48s24.167 38.333 30.5 58s10.667 42.167 13 67.5
s-1.83301 50.667 -12.5 76c-2.66699 8 -2.16699 15.667 1.5 23c3.672 7.33301 9.505 12.333 17.5 15c8 2.66602 15.667 2.33301 23 -1c7.33301 -3.33801 12.333 -9.005 15 -17zM743 312c27.333 19.334 38.333 45.667 33 79c-7.336 -4.00101 -17.67 -9.33499 -31 -16
c-4 -2 -8 -3 -12 -3c-15.333 0.00100708 -24.833 7.668 -28.5 23c-3.66699 15.334 1.5 26.668 15.5 34c4.66699 2.00201 12.667 6.66901 24 14c-30.001 22 -60.668 22.333 -92 1c-18 -13.333 -29 -30.833 -33 -52.5c-3.99799 -21.667 0.335022 -41.5 13 -59.5
c12.669 -18 29.835 -29 51.5 -33c21.666 -4 41.5 0.333008 59.5 13z" />
    <glyph glyph-name="cent" unicode="&#xa2;" horiz-adv-x="947" 
d="M0 377c0 48 12.5 93 37.5 135s58.8333 78.667 101.5 110c42.667 31.333 92.833 56.167 150.5 74.5c57.667 18.333 119.167 27.5 184.5 27.5c65.333 -0.00402832 126.667 -9.17102 184 -27.5c57.333 -18.336 107.5 -43.169 150.5 -74.5
c43 -31.334 76.834 -68.001 101.5 -110c24.669 -42 37.002 -86.834 37 -134.5c0 -47.667 -12.333 -92.667 -37 -135c-24.667 -42.333 -58.5 -79 -101.5 -110s-93.167 -55.6667 -150.5 -74c-57.334 -18.3333 -118.667 -27.5 -184 -27.5c-31.333 0 -61 2 -89 6
c-29.333 -22 -61 -41.1667 -95 -57.5c-34 -16.3333 -70.333 -28.5 -109 -36.5l-25 -5l-27 -4c-10.667 -1.3333 -17.667 3.6667 -21 15v1c-1.333 4.6667 0 8.6667 4 12l9 10l21 23c6.66701 7.33333 12.5 15.8333 17.5 25.5s9.83299 21 14.5 34s8.66701 29.1667 12 48.5
c-56.667 31.333 -101.833 70.667 -135.5 118c-33.6667 47.333 -50.5 99.333 -50.5 156z" />
    <glyph glyph-name="sterling" unicode="&#xa3;" horiz-adv-x="947" 
d="M0 443c0 38.667 10.1667 75 30.5 109c20.3333 34 47.8333 63.667 82.5 89c34.667 25.333 75.333 45.5 122 60.5c46.667 15 96.667 22.5 150 22.5s103.333 -7.5 150 -22.5c46.668 -15.001 87.334 -35.168 122 -60.5c34.668 -25.334 62.001 -55 82 -89
c20 -34 30 -70.334 30 -109c0 -39.333 -10 -76 -30 -110s-47.333 -63.667 -82 -89c-34.667 -25.333 -75.333 -45.333 -122 -60s-96.667 -22 -150 -22c-12.668 0 -24.834 0.5 -36.5 1.5c-11.667 1 -23.5 2.16701 -35.5 3.5c-24 -18.667 -49.667 -34.667 -77 -48
c-27.333 -13.333 -57 -23.3333 -89 -30c-14 -3.3333 -28 -5.3333 -42 -6c-8 -1.3333 -13.6667 2.3333 -17 11v1c-1.3333 4 -0.666702 7.333 2 10l8 8c12 12 22.5 25 31.5 39s16.5 36.333 22.5 67c-46.667 25.333 -83.6667 57.333 -111 96
c-27.3333 38.667 -41 81.333 -41 128zM321 77l13 8c8.66699 -1.3333 17.333 -2 26 -2h25c65.334 0 126.167 9.1667 182.5 27.5c56.333 18.333 105.333 43.667 147 76c41.668 32.333 74.335 70.5 98 114.5c23.666 44 35.499 91.333 35.5 142c0 13.334 -1 27 -3 41
c32 -25.333 57 -54 75 -86s27 -66.667 27 -104c-0.000976562 -46 -13.668 -88.167 -41 -126.5c-27.334 -38.333 -64.001 -70.5 -110 -96.5c5.33301 -30.6667 12.667 -52.8333 22 -66.5c9.33301 -13.6667 19.667 -26.5 31 -38.5c3.33301 -3.3333 6.16699 -6.5 8.5 -9.5
s2.83301 -6.1666 1.5 -9.5c-0.666992 -4 -2.83301 -7.3333 -6.5 -10c-3.66699 -2.6667 -7.16699 -3.6667 -10.5 -3c-7.33301 1.3331 -14.333 2.4998 -21 3.5c-6.66699 1 -13.667 2.5 -21 4.5c-62 13.3333 -117 38.6667 -165 76c-12 -1.3333 -24 -2.5 -36 -3.5
s-24.333 -1.5 -37 -1.5c-46 0 -89.167 5.6667 -129.5 17c-40.333 11.3333 -77.5 27 -111.5 47z" />
    <glyph glyph-name="currency" unicode="&#xa4;" horiz-adv-x="750" 
d="M0 309c-4.76837e-07 62.667 14.3333 121.167 43 175.5c28.6667 54.333 69 99.167 121 134.5c4.66701 2.67297 9.66701 4.00598 15 4c4.66701 -0.666992 9 -3.66699 13 -9l44 -65c6.666 -11.333 4.99899 -20.333 -5 -27c-36 -24.667 -63.667 -55.667 -83 -93
s-29 -77.333 -29 -120c0 -35.333 6.667 -68.5 20 -99.5c13.333 -31 31.5 -58.167 54.5 -81.5c23 -23.333 50.167 -41.6667 81.5 -55c31.334 -13.3334 64.667 -20 100 -20c35.334 0 68.667 6.6667 100 20c31.333 13.3334 58.667 31.667 82 55
c23.333 23.333 41.667 50.5 55 81.5s20 64.167 20 99.5c0 42.667 -9.83301 82.667 -29.5 120s-47.5 68.333 -83.5 93c-4 2 -6.66699 6 -8 12c-1.33301 4.66699 -0.333008 9.66699 3 15l45 65c3.33301 4.67603 7.5 7.50897 12.5 8.5c5 0.98999 9.83301 -0.177002 14.5 -3.5
c51.333 -35.334 91.667 -80.168 121 -134.5c29.333 -54.333 44 -112.833 44 -175.5c0 -52 -9.83301 -100.667 -29.5 -146c-19.667 -45.333 -46.667 -85 -81 -119c-34.334 -34 -74.167 -60.8333 -119.5 -80.5c-45.333 -19.6667 -94 -29.5 -146 -29.5
s-100.667 9.8333 -146 29.5c-45.333 19.6667 -85 46.5 -119 80.5s-60.8333 73.667 -80.5 119c-19.6667 45.333 -29.5 94 -29.5 146zM316 349v355c0.00100708 13.333 6.668 20 20 20h79c5.33401 0 10.001 -2 14 -6c4 -4.005 6 -8.672 6 -14v-355c0 -5.33301 -2 -10 -6 -14
s-8.66699 -6 -14 -6h-79c-13.333 0.00100708 -20 6.66699 -20 20z" />
    <glyph glyph-name="yen" unicode="&#xa5;" horiz-adv-x="900" 
d="M169 57l-75 74l169 169l75 -75zM731 57l-169 168l75 75l169 -169zM263 525l-169 168l75 75l169 -169zM0 465h238v-106h-238v106zM662 359v106h238v-106h-238zM503 -38h-106v239h106v-239zM503 624h-106v238h106v-238z" />
    <glyph glyph-name="brokenbar" unicode="&#xa6;" horiz-adv-x="828" 
d="M0.5 423.5c3 9 11.8333 14.833 26.5 17.5l251 36l111 227c7.33401 14 15.668 21 25 21c9.33301 0 17.333 -7 24 -21l113 -227l249 -36c15.333 -2.66599 24.5 -8.5 27.5 -17.5s-0.833008 -18.834 -11.5 -29.5l-181 -177l42 -248
c2.66699 -15.3333 0.166992 -25.8333 -7.5 -31.5c-7.66699 -5.6671 -18.167 -4.5004 -31.5 3.5l-224 116l-223 -116c-14.667 -8 -25.833 -9.1667 -33.5 -3.5c-7.66701 5.6667 -9.83299 16.1667 -6.5 31.5l43 248l-181 177c-11.3333 10.667 -15.5 20.5 -12.5 29.5z" />
    <glyph glyph-name="section" unicode="&#xa7;" horiz-adv-x="828" 
d="M0.5 423.5c3 9 11.8333 14.833 26.5 17.5l251 35l111 228c6.66699 13.333 14.833 20 24.5 20c9.66699 -0.00500488 17.833 -6.672 24.5 -20l113 -228l249 -35c15.333 -2.66599 24.5 -8.5 27.5 -17.5s-0.833008 -18.834 -11.5 -29.5l-181 -177l42 -248
c2 -11.3333 1.16699 -20 -2.5 -26s-9.16699 -9 -16.5 -9c-4.66699 0 -11.333 1.6667 -20 5l-224 118l-223 -118c-8.66701 -3.3333 -15.333 -5 -20 -5c-8 0 -13.833 3 -17.5 9s-4.5 14.6667 -2.5 26l43 248l-181 177c-11.3333 10.667 -15.5 20.5 -12.5 29.5zM143 377
l105 -103l31 -28l-7 -41l-26 -147l131 70l37 19l37 -19l130 -70l-24 147l-8 41l30 28l106 103l-146 21l-41 7l-19 37l-65 132l-66 -132l-17 -37l-42 -7z" />
    <glyph glyph-name="dieresis" unicode="&#xa8;" 
 />
    <glyph glyph-name="copyright" unicode="&#xa9;" horiz-adv-x="789" 
d="M0 290v79c0 5.33301 2 9.83301 6 13.5s8.6667 5.5 14 5.5h84c6.667 28.667 17 55.833 31 81.5s31 48.5 51 68.5s42.833 37 68.5 51c25.667 14 52.833 24 81.5 30v85c0 13.333 6.66699 20 20 20h79c5.33301 0 9.83301 -2 13.5 -6c3.66699 -4.005 5.5 -8.672 5.5 -14v-85
c28.667 -6 55.833 -16 81.5 -30s48.501 -31 68.5 -51c20 -20 37 -42.834 51 -68.5c14 -25.667 24 -52.834 30 -81.5h84c6.00299 -0.00299072 10.836 -1.836 14.5 -5.5c3.68298 -3.66699 5.51599 -8.16699 5.5 -13.5v-79c-0.00402832 -13.333 -6.67102 -20 -20 -20h-84
c-6 -28.667 -16 -55.833 -30 -81.5s-31 -48.5 -51 -68.5s-42.833 -37 -68.5 -51s-52.834 -24.3333 -81.5 -31v-84c0.00201416 -5.3333 -1.832 -10 -5.5 -14c-3.66699 -4 -8.16699 -6 -13.5 -6h-79c-13.333 0 -20 6.6667 -20 20v84c-28.667 6.6667 -55.834 17 -81.5 31
c-25.667 14 -48.5 31 -68.5 51s-37 42.833 -51 68.5s-24.333 52.833 -31 81.5h-84c-13.3333 0 -20 6.66699 -20 20zM187 270c10 -36.667 28.167 -68.167 54.5 -94.5c26.333 -26.333 57.833 -44.167 94.5 -53.5v89c0 5.33299 1.83301 9.83299 5.5 13.5
c3.66699 3.666 8.5 5.49899 14.5 5.5h79c5.33301 0 9.83301 -1.83299 13.5 -5.5s5.5 -8.16701 5.5 -13.5v-89c36 9.33299 67.167 27.167 93.5 53.5s44.5 57.833 54.5 94.5h-88c-13.333 0 -20 6.66699 -20 20v79c0 5.33301 1.83301 9.83301 5.5 13.5s8.5 5.5 14.5 5.5h88
c-10.001 36.667 -28.168 68.167 -54.5 94.5c-26.334 26.333 -57.5 44.167 -93.5 53.5v-88c0.00201416 -6.00201 -1.832 -10.835 -5.5 -14.5c-3.66699 -3.66501 -8.16699 -5.49899 -13.5 -5.5h-79c-13.333 0.00100708 -20 6.668 -20 20v88
c-36.667 -9.33398 -68.167 -27.168 -94.5 -53.5c-26.333 -26.333 -44.5 -57.833 -54.5 -94.5h90c5.33301 -0.00299072 9.83301 -1.836 13.5 -5.5c3.66699 -3.66699 5.5 -8.16699 5.5 -13.5v-79c-0.00299072 -5.33301 -1.83701 -10 -5.5 -14
c-3.66699 -4 -8.16699 -6 -13.5 -6h-90z" />
    <glyph glyph-name="ordfeminine" unicode="&#xaa;" horiz-adv-x="930" 
d="M524 82v-65c47.333 -5.3333 86.333 -16 117 -32s46 -34.3333 46 -55c-0.000976562 -24.6666 -21.668 -45.833 -65 -63.5c-43.334 -17.667 -95.667 -26.5 -157 -26.5s-113.667 8.83299 -157 26.5c-43.333 17.667 -65 38.8333 -65 63.5c0 20.6667 15.333 39 46 55
s69.667 26.6667 117 32v65c0 33.333 -11 61.667 -33 85s-59.334 52.333 -112 87c-30 20 -53 35.833 -69 47.5s-37.167 29.833 -63.5 54.5c-26.333 24.667 -46.3333 48.667 -60 72c-13.6667 23.333 -26 52.833 -37 88.5s-16.5 74.167 -16.5 115.5
c0 9.33301 3.3333 17.5 10 24.5s15 10.5 25 10.5h172c14 26 41.167 48 81.5 66s94.167 27 161.5 27s121.167 -9 161.5 -27s67.5 -40 81.5 -66h172c10.003 0 18.337 -3.5 25 -10.5c6.67499 -7 10.009 -15.167 10 -24.5c0 -41.333 -5.5 -79.833 -16.5 -115.5
s-23.333 -65.167 -37 -88.5s-33.667 -47.333 -60 -72c-26.335 -24.667 -47.502 -42.834 -63.5 -54.5c-16 -11.667 -39 -27.5 -69 -47.5c-52.667 -34.667 -90 -63.667 -112 -87s-33 -51.667 -33 -85zM663 335c53.333 36 95.333 73.333 126 112s48.667 88.667 54 150h-126
c-3.33301 -104.667 -21.333 -192 -54 -262zM465 699c-26 0 -50 -2 -72 -6s-40 -9 -54 -15c-14 -6.00201 -26 -12.669 -36 -20c-10 -7.336 -17.167 -14.002 -21.5 -20c-4.33301 -6 -6.5 -11.333 -6.5 -16c0.00100708 -4.66699 2.16699 -10 6.5 -16
c4.33401 -5.99902 11.501 -12.666 21.5 -20c10 -7.34003 22 -14.007 36 -20c14 -6 32 -11 54 -15s46 -6 72 -6s50 2 72 6s40 9 54 15s26 12.667 36 20s17.167 14 21.5 20c4.33301 6.00201 6.5 11.335 6.5 16c-0.00500488 4.67297 -2.172 10.006 -6.5 16
c-4.336 6 -11.502 12.667 -21.5 20c-10 7.33301 -22 14 -36 20s-32 11 -54 15s-46 6 -72 6zM87 597c5.3333 -61.334 23.333 -111.334 54 -150c30.667 -38.667 72.667 -76 126 -112c-32.667 70 -50.667 157.333 -54 262h-126z" />
    <glyph glyph-name="guillemotleft" unicode="&#xab;" horiz-adv-x="965" 
d="M259 -192c-38.667 0 -75.333 8.83299 -110 26.5c-34.667 17.667 -62.8334 41.667 -84.5 72c-21.6667 30.3333 -36.8333 63.6667 -45.5 100c-8.6667 36.3333 -6.5 75 6.5 116s37.1667 79.167 72.5 114.5l222 222l273 274c24.667 24.667 52.501 41.667 83.5 51
c31 9.33301 61.833 10 92.5 2c30.001 -8 56.334 -23.333 79 -46c22.668 -22.667 38.002 -49 46 -79c7.966 -30.667 7.29901 -61.5 -2 -92.5c-9.33301 -31 -26.333 -58.834 -51 -83.5l-474 -473c-16 -16 -33.334 -28.3333 -52 -37c-18.667 -8.6667 -38.667 -12 -60 -10
c-21.333 2 -40 11 -56 27c-12.667 12.6667 -21.167 28 -25.5 46s-2.83299 38 4.5 60s20.667 42.667 40 62l333 332c7.33301 6.66699 15.667 10 25 10c9.33301 0.00100708 17.333 -3.33301 24 -10c6.67603 -6.66699 10.009 -14.667 10 -24
c0 -9.33301 -3.33301 -17.667 -10 -25l-332 -333c-14 -14 -22.5 -27.5 -25.5 -40.5c-2.998 -13 -1.16499 -22.1667 5.5 -27.5c6.00101 -6 13.668 -8.3333 23 -7c16.667 2 32.333 10.6667 47 26l473 474c33.333 34.667 45 70.667 35 108c-5.33801 18 -14.672 33.667 -28 47
c-13.333 13.333 -29 22.667 -47 28c-38 10.665 -74 -1.00098 -108 -35l-274 -273l-222 -222c-29.333 -29.333 -48.1667 -60.667 -56.5 -94c-8.3333 -33.3333 -8 -63.6667 1 -91s24.167 -51.6667 45.5 -73c21.333 -21.3333 45.667 -36.5 73 -45.5
c27.333 -8.999 57.667 -9.332 91 -1c33.334 8.333 64.667 27.1666 94 56.5l495 496c6.66699 6.66699 15 10 25 10c10.005 -0.00100708 18.338 -3.33401 25 -10c6.67603 -6.66699 10.009 -15 10 -25c0 -10.001 -3.33301 -18.334 -10 -25l-496 -495
c-55.333 -55.333 -117 -83 -185 -83z" />
    <glyph glyph-name="logicalnot" unicode="&#xac;" horiz-adv-x="820" 
d="M787 27c22.684 -22.6667 25.018 -43 7 -61l-47 -47c-9.336 -9.3333 -20.502 -14 -33.5 -14c-13.002 0 -24.169 4.6666 -33.5 14l-190 190c-48 -28 -100 -42 -156 -42c-85.333 0 -159.833 31.8333 -223.5 95.5c-63.6667 63.667 -95.5 138.167 -95.5 223.5
s30.1667 158.167 90.5 218.5c60.333 60.333 133.167 90.5 218.5 90.5c85.333 0 159.833 -31.833 223.5 -95.5s95.501 -138.167 95.5 -223.5c0 -56 -15 -109.333 -45 -160zM110 386c0 -58.667 22.667 -110.667 68 -156c45.333 -45.333 97.333 -68 156 -68s109 21 151 63
s63 92.333 63 151s-22.667 110.667 -68 156s-97.333 68 -156 68s-109 -21 -151 -63s-63 -92.333 -63 -151z" />
    <glyph glyph-name="uni00AD" unicode="&#xad;" horiz-adv-x="930" 
d="M821 656c26.668 -26.667 48.501 -55.833 65.5 -87.5c17.001 -31.667 26.335 -58.833 28 -81.5s-2.50201 -40.667 -12.5 -54l-135 -135c-10.667 -10.667 -31.5 -19.334 -62.5 -26c-31 -6.66699 -62.833 -8 -95.5 -4l-408 -408c-12 -12 -31 -13.667 -57 -5s-51 25 -75 49
s-40.3333 49 -49 75s-7 45 5 57l408 408c-4 32.667 -2.5 64.5 4.5 95.5c7 31.001 15.833 51.835 26.5 62.5l134 135c16 18 47 19.167 93 3.5c46.001 -15.667 89.334 -43.833 130 -84.5zM372 248c9.33301 -9.33299 21.833 -12.833 37.5 -10.5s30.167 10.167 43.5 23.5
c13.335 13.333 21.168 27.833 23.5 43.5c2.33301 15.667 -1.16699 28.167 -10.5 37.5s-21.667 12.833 -37 10.5s-29.667 -10.167 -43 -23.5s-21.333 -27.833 -24 -43.5c-2.664 -15.667 0.670013 -28.167 10 -37.5zM710 544c19.333 -19.334 41.667 -35.501 67 -48.5
c25.333 -13.001 45.833 -21.334 61.5 -25c15.669 -3.66699 24.836 -4.16699 27.5 -1.5c2.63702 2.66699 1.80402 11.667 -2.5 27c-4.33301 15.334 -13.333 35.334 -27 60c-13.667 24.667 -30.167 46.667 -49.5 66s-41.333 35.833 -66 49.5s-44.667 22.667 -60 27
s-24.333 5.16699 -27 2.5s-2.16699 -12 1.5 -28c3.66699 -16.001 12.167 -36.667 25.5 -62c13.333 -25.335 29.667 -47.668 49 -67z" />
    <glyph glyph-name="registered" unicode="&#xae;" horiz-adv-x="730" 
d="M655 425c14 0 27.5 -6.5 40.5 -19.5s19.5 -26.5 19.5 -40.5v-390c-0.00500488 -14 -4.672 -27.3333 -14 -40c-9.33801 -12.6667 -20.671 -21 -34 -25l-59 -20c-32.667 -10 -65.333 -15 -98 -15h-290c-32.667 0 -65.333 5 -98 15l-59 20
c-13.3333 4 -24.6667 12.3333 -34 25c-9.3333 12.6667 -14 26 -14 40v390c0 14.667 5 28.333 15 41s21.6667 19 35 19h100v70c0 73.333 17 130 51 170s83.667 60 149 60s115 -20 149 -60s51 -96.667 51 -170v-70h90zM265 515v-90h200v90c0 35.333 -9 62.5 -27 81.5
s-42.334 28.5 -73 28.5c-30.667 0 -55 -9.5 -73 -28.5c-18 -19.001 -27 -46.167 -27 -81.5z" />
    <glyph glyph-name="macron" unicode="&#xaf;" horiz-adv-x="730" 
d="M655 400c14 0 27.5 -6.5 40.5 -19.5s19.5 -26.5 19.5 -40.5v-390c-0.00500488 -14 -4.672 -27.3333 -14 -40c-9.33801 -12.667 -20.671 -21 -34 -25l-59 -20c-32.667 -10 -65.333 -15 -98 -15h-290c-32.667 0 -65.333 5 -98 15l-59 20c-13.3333 4 -24.6667 12.333 -34 25
c-9.3333 12.6667 -14 26 -14 40v390c0 14.667 5 28.333 15 41s21.6667 19 35 19h400v140c0 35.333 -9 62.5 -27 81.5s-42.334 28.5 -73 28.5c-30.667 0 -55 -9.5 -73 -28.5c-18 -19.001 -27 -46.167 -27 -81.5v-40h-100v20c0 73.333 17 130 51 170s83.667 60 149 60
s115 -20 149 -60s51 -96.667 51 -170v-120h90z" />
    <glyph glyph-name="degree" unicode="&#xb0;" horiz-adv-x="390" 
d="M325 750c14 0 25.833 -4.83301 35.5 -14.5s14.5 -21.5 14.5 -35.5v-850l-180 180l-180 -180v850c0 33.333 13.3333 50 40 50h270z" />
  </font>
</defs>
</svg>
